<?xml version="1.0" encoding="UTF-8"?>
<svg width="44px" height="44px" viewBox="0 0 44 44" version="1.1" xmlns="http://www.w3.org/2000/svg" xmlns:xlink="http://www.w3.org/1999/xlink">
    <!-- Generator: Sketch 46.2 (44496) - http://www.bohemiancoding.com/sketch -->
    <title>nav_icon</title>
    <desc>Created with Sketch.</desc>
    <defs></defs>
    <g id="New" stroke="none" stroke-width="1" fill="none" fill-rule="evenodd">
        <path d="M33.1005711,26.9661433 C33.679789,25.593021 34,24.0839051 34,22.5 C34,16.1487254 28.8512746,11 22.5,11 C16.1487254,11 11,16.1487254 11,22.5 C11,28.8512746 16.1487254,34 22.5,34 C23.1812042,34 23.8485747,33.9407713 24.4972428,33.8271826 L18.6911695,26.122263 L27.4761601,19.5022978 L33.1005711,26.9661433 Z M22,44 C9.8497355,44 0,34.1502645 0,22 C0,9.8497355 9.8497355,0 22,0 C34.1502645,0 44,9.8497355 44,22 C44,34.1502645 34.1502645,44 22,44 Z" id="Combined-Shape" fill="#FFFFFF"></path>
    </g>
</svg>