<?xml version="1.0" encoding="UTF-8"?>
<svg width="514px" height="454px" viewBox="0 0 514 454" version="1.1" xmlns="http://www.w3.org/2000/svg" xmlns:xlink="http://www.w3.org/1999/xlink">
    <!-- Generator: Sketch 46.2 (44496) - http://www.bohemiancoding.com/sketch -->
    <title>icon</title>
    <desc>Created with Sketch.</desc>
    <defs>
        <circle id="path-1" cx="185" cy="185" r="185"></circle>
    </defs>
    <g id="badges" stroke="none" stroke-width="1" fill="none" fill-rule="evenodd">
        <g id="First_badge" transform="translate(-118.000000, -184.000000)">
            <g id="text_on-path" transform="translate(58.000000, 67.000000)">
                <circle id="Oval" fill-opacity="0" fill="#7EC595" transform="translate(317.000000, 317.000000) rotate(66.000000) translate(-317.000000, -317.000000) " cx="317" cy="317" r="240"></circle>
                <text id="NEXT-STOP,-THE-MOON!" font-family="SpaceMono-Regular, Space Mono" font-size="48" font-weight="normal" line-spacing="65" letter-spacing="0.5" fill="#183E51">
                    <tspan x="76" y="561.680176">NEXT STOP, THE MOON</tspan>
                    <tspan x="643.644" y="561.680176">!</tspan>
                </text>
            </g>
            <path d="M379.679377,422.918475 L632,422.918475 L612.613089,383.899014 L632,344 L373.388039,344 L373.378066,344.255747 L118,344.255747 L137.386911,384.154761 L118,423.174222 L379.689349,423.174222 L379.679377,422.918475 Z" id="Combined-Shape" fill="#183E51"></path>
            <g id="icon" transform="translate(175.000000, 184.000000)">
                <circle id="Oval" fill="#7EC595" cx="200" cy="200" r="200"></circle>
                <circle id="Oval" fill="#FFFFFF" cx="200" cy="200" r="190"></circle>
                <g id="clouds+fire" transform="translate(15.000000, 15.000000)">
                    <mask id="mask-2" fill="white">
                        <use xlink:href="#path-1"></use>
                    </mask>
                    <use id="Mask" fill="#66C3C2" xlink:href="#path-1"></use>
                    <path d="M268.17259,309.3957 C261.837092,328.730535 239.760811,343 213.5,343 C191.399771,343 172.263173,332.893869 162.978042,318.167494 C154.870812,323.109447 145.064226,326 134.5,326 C114.06986,326 96.4732665,315.18944 88.5213726,299.637664 C81.1474136,304.278115 72.1764596,307 62.5,307 C45.3803768,307 30.4690427,298.480281 22.7028404,285.889428 C20.7543164,286.609733 18.6684944,287 16.5,287 C5.73044738,287 -3,277.374122 -3,265.5 C-3,253.625878 5.73044738,244 16.5,244 C18.858388,244 21.1189905,244.46161 23.211538,245.307355 C31.1086783,233.158743 45.7469766,225 62.5,225 C79.6895427,225 94.6527213,233.589453 102.391957,246.265045 C111.119205,239.851986 122.304782,236 134.5,236 C154.632747,236 172.013841,246.498122 180.125261,261.686228 C189.476631,256.225061 201.01544,253 213.5,253 C223.412513,253 232.728818,255.033101 240.82741,258.6043 C247.162908,239.269465 269.239189,225 295.5,225 C326.704088,225 352,245.147186 352,270 C352,294.852814 326.704088,315 295.5,315 C285.587487,315 276.271182,312.966899 268.17259,309.3957 Z" id="Combined-Shape" fill="#FFFFFF" mask="url(#mask-2)"></path>
                    <path d="M306.731699,295.635983 C300.380116,293.29702 293.369065,292 286,292 C265.166875,292 247.195188,302.366464 238.896492,317.33577 C232.767574,315.186297 226.047513,314 219,314 C205.510448,314 193.220591,318.346271 183.979592,325.474136 C175.804862,318.346271 164.933065,314 153,314 C146.85201,314 140.985719,315.153664 135.624834,317.247013 C128.264443,302.325502 112.392857,292 94,292 C86.7218332,292 79.8384555,293.616802 73.7210086,296.4954 C71.5048965,274.792914 56.3569826,258 38,258 C18.117749,258 2,277.699471 2,302 C2,326.300529 18.117749,346 38,346 C41.7475744,346 45.3614039,345.300119 48.758764,344.001466 C52.6924306,364.481685 71.451592,380 94,380 C100.147992,380 106.014283,378.846336 111.375169,376.752986 C118.735557,391.674498 134.607143,402 153,402 C164.933065,402 175.804862,397.653729 183.979592,390.525864 C193.220591,397.653729 205.510448,402 219,402 C239.833125,402 257.804812,391.633536 266.103508,376.66423 C272.232429,378.813703 278.952488,380 286,380 C306.972111,380 325.044477,369.494758 333.268306,354.364019 C339.619888,356.702981 346.630937,358 354,358 C382.718807,358 406,338.300529 406,314 C406,289.699471 382.718807,270 354,270 C333.027889,270 314.955523,280.505242 306.731694,295.635981 Z" id="Combined-Shape" fill="#F2F2F2" mask="url(#mask-2)"></path>
                    <path d="M203.067893,266.783406 C216.210476,319.536859 229.251387,352.937356 242.190626,366.984899 C232.218484,373.661633 227.232413,377 227.232413,377 C198.410804,377 184,377 184,377 L184.78215,264 L203.067893,266.783406 Z" id="Path-6" fill="#EF714F" mask="url(#mask-2)"></path>
                    <path d="M147.067893,266.783406 C160.210476,319.536859 173.251387,352.937356 186.190626,366.984899 C176.218484,373.661633 171.232413,377 171.232413,377 C142.410804,377 128,377 128,377 L128.78215,264 L147.067893,266.783406 Z" id="Path-6" fill="#EF8D4F" mask="url(#mask-2)" transform="translate(157.095313, 320.500000) scale(-1, 1) translate(-157.095313, -320.500000) "></path>
                </g>
                <g id="Group-3" transform="translate(141.000000, 60.000000)">
                    <path d="M26.2693396,183.385672 C30.7223902,211.36612 34.5640241,224.856151 37.7942415,223.855764 L58.8623306,223.855764 L79.9304197,223.855764 C84.8355161,225.374855 91.1504491,193.481176 98.8752187,128.174725 C106.599877,62.8692179 93.2622473,20.1443096 58.8623306,9.16967792e-11 C24.462414,20.1443096 11.1247847,62.8692179 18.8494426,128.174725 C19.718497,135.521851 20.5697073,142.446079 21.4030737,148.947409 C-5.80371068,174.304944 -7.07231212,205.989144 17.5972684,244 L24.148143,240.769325 C14.7379112,210.985257 15.4449768,191.857373 26.2693396,183.385672 Z" id="Combined-Shape" stroke="#FFFFFF" stroke-width="2" fill="#F77877"></path>
                    <path d="M74.218475,177.299298 C100.440327,177.368672 106.99579,198.191436 93.8848639,239.767589 L100.426784,243 C125.448729,204.372713 123.749708,172.27544 95.3297216,146.708183 C66.909735,121.140925 59.8726528,131.337963 74.218475,177.299298 Z" id="Path" stroke="#FFFFFF" stroke-width="2" fill="#DA5D5C"></path>
                    <path d="M59.4439413,0 C94.1853056,20.1521858 107.655391,62.8948571 99.8541974,128.228014 C92.0530039,193.561171 85.675595,225.467893 80.7219707,223.94818 L59,223.94818" id="Path-3" stroke="#FFFFFF" stroke-width="2" fill="#DA5D5C"></path>
                    <g id="Logo-dark" transform="translate(30.000000, 1.000000)" stroke="#FFFFFF">
                        <path d="M0.793075519,30 C7.58334359,17.1529282 16.9856517,7.15292824 29,9.14719276e-11 C41.0143483,7.15292824 50.4166564,17.1529282 57.2069245,30 L0.793075519,30 Z" id="Combined-Shape" fill="#FFBA08"></path>
                        <g transform="translate(7.000000, 63.000000)" id="Combined-Shape" fill="#FFFFFF">
                            <path d="M32.4405974,26.6831945 C33.0827625,25.2537737 33.44,23.6686055 33.44,22 C33.44,15.6818625 28.3181375,10.56 22,10.56 C15.6818625,10.56 10.56,15.6818625 10.56,22 C10.56,28.3181375 15.6818625,33.44 22,33.44 C22.7475359,33.44 23.4783255,33.3683009 24.1858671,33.2314044 L18.7377022,26.0014453 L27.149995,19.662328 L32.4405974,26.6831945 Z M22,44 C9.8497355,44 0,34.1502645 0,22 C0,9.8497355 9.8497355,0 22,0 C34.1502645,0 44,9.8497355 44,22 C44,34.1502645 34.1502645,44 22,44 Z"></path>
                        </g>
                    </g>
                    <path d="M86.6217636,30 C79.9093163,18.1112098 70.8466008,8.77787649 59.4336171,2 L59.3794024,30 L86.6217636,30 Z" id="Combined-Shape" fill="#EBA900"></path>
                </g>
            </g>
        </g>
    </g>
</svg>