<?xml version="1.0" encoding="UTF-8"?>
<svg width="70px" height="70px" viewBox="0 0 70 70" version="1.1" xmlns="http://www.w3.org/2000/svg" xmlns:xlink="http://www.w3.org/1999/xlink">
    <!-- Generator: Sketch 46.2 (44496) - http://www.bohemiancoding.com/sketch -->
    <title>Login_signup_icon</title>
    <desc>Created with Sketch.</desc>
    <defs></defs>
    <g id="New" stroke="none" stroke-width="1" fill="none" fill-rule="evenodd">
        <path d="M42.8606026,32.5831147 L31.1167422,41.4327483 L40.1192553,53.3794866 L38.5465448,53.6837775 C37.3499709,53.9152928 36.1272385,54.0327991 34.8899994,54.0327991 C24.3177231,54.0327991 15.7471997,45.4622757 15.7471997,34.8899994 C15.7471997,24.3177231 24.3177231,15.7471997 34.8899994,15.7471997 C45.4622757,15.7471997 54.0327991,24.3177231 54.0327991,34.8899994 C54.0327991,37.6263219 53.4577149,40.2835011 52.3600153,42.7269145 L51.6669792,44.2695712 L42.8606026,32.5831147 Z M34.8899994,68.7799988 C53.6069292,68.7799988 68.7799988,53.6069292 68.7799988,34.8899994 C68.7799988,16.1730696 53.6069292,1 34.8899994,1 C16.1730696,1 1,16.1730696 1,34.8899994 C1,53.6069292 16.1730696,68.7799988 34.8899994,68.7799988 Z" id="Combined-Shape" stroke="#5CABC9" stroke-width="2"></path>
    </g>
</svg>