<?xml version="1.0" encoding="UTF-8"?>
<svg width="1280px" height="720px" viewBox="0 0 1280 720" version="1.1" xmlns="http://www.w3.org/2000/svg" xmlns:xlink="http://www.w3.org/1999/xlink">
    <!-- Generator: Sketch 41.2 (35397) - http://www.bohemiancoding.com/sketch -->
    <title>background</title>
    <desc>Created with Sketch.</desc>
    <defs>
        <path d="M91.1071893,124.379041 C88.3351722,124.944351 85.4654851,125.241176 82.5264706,125.241176 C58.9357899,125.241176 39.8117647,106.117151 39.8117647,82.5264706 C39.8117647,58.9357899 58.9357899,39.8117647 82.5264706,39.8117647 C106.117151,39.8117647 125.241176,58.9357899 125.241176,82.5264706 C125.241176,88.4034487 124.054297,94.0032163 121.907158,99.0991542 L102.675988,73.5785287 L70.8808985,97.5378468 L91.1071893,124.379041 Z M82.9411765,165.882353 C128.748323,165.882353 165.882353,128.748323 165.882353,82.9411765 C165.882353,37.1340296 128.748323,7.81597009e-14 82.9411765,7.81597009e-14 C37.1340296,7.81597009e-14 -1.42108547e-13,37.1340296 -1.42108547e-13,82.9411765 C-1.42108547e-13,128.748323 37.1340296,165.882353 82.9411765,165.882353 Z" id="path-1"></path>
        <filter x="-50%" y="-50%" width="200%" height="200%" filterUnits="objectBoundingBox" id="filter-2">
            <feOffset dx="-1" dy="2" in="SourceAlpha" result="shadowOffsetOuter1"></feOffset>
            <feColorMatrix values="0 0 0 0 0.270588235   0 0 0 0 0.77254902   0 0 0 0 0.77254902  0 0 0 1 0" type="matrix" in="shadowOffsetOuter1"></feColorMatrix>
        </filter>
        <path d="M298.46013,124.379041 C295.688113,124.944351 292.818426,125.241176 289.879412,125.241176 C266.288731,125.241176 247.164706,106.117151 247.164706,82.5264706 C247.164706,58.9357899 266.288731,39.8117647 289.879412,39.8117647 C313.470092,39.8117647 332.594118,58.9357899 332.594118,82.5264706 C332.594118,88.4034487 331.407238,94.0032163 329.260099,99.0991542 L310.028929,73.5785287 L278.23384,97.5378468 L298.46013,124.379041 Z M290.294118,165.882353 C336.101265,165.882353 373.235294,128.748323 373.235294,82.9411765 C373.235294,37.1340296 336.101265,2.48689958e-13 290.294118,2.48689958e-13 C244.486971,2.48689958e-13 207.352941,37.1340296 207.352941,82.9411765 C207.352941,128.748323 244.486971,165.882353 290.294118,165.882353 Z" id="path-3"></path>
        <filter x="-50%" y="-50%" width="200%" height="200%" filterUnits="objectBoundingBox" id="filter-4">
            <feOffset dx="-1" dy="2" in="SourceAlpha" result="shadowOffsetOuter1"></feOffset>
            <feColorMatrix values="0 0 0 0 0.270588235   0 0 0 0 0.77254902   0 0 0 0 0.77254902  0 0 0 1 0" type="matrix" in="shadowOffsetOuter1"></feColorMatrix>
        </filter>
        <path d="M505.813072,124.379041 C503.041055,124.944351 500.171367,125.241176 497.232353,125.241176 C473.641672,125.241176 454.517647,106.117151 454.517647,82.5264706 C454.517647,58.9357899 473.641672,39.8117647 497.232353,39.8117647 C520.823034,39.8117647 539.947059,58.9357899 539.947059,82.5264706 C539.947059,88.4034487 538.76018,94.0032163 536.613041,99.0991542 L517.38187,73.5785287 L485.586781,97.5378468 L505.813072,124.379041 Z M497.647059,165.882353 C543.454206,165.882353 580.588235,128.748323 580.588235,82.9411765 C580.588235,37.1340296 543.454206,-1.3500312e-13 497.647059,-1.3500312e-13 C451.839912,-1.3500312e-13 414.705882,37.1340296 414.705882,82.9411765 C414.705882,128.748323 451.839912,165.882353 497.647059,165.882353 Z" id="path-5"></path>
        <filter x="-50%" y="-50%" width="200%" height="200%" filterUnits="objectBoundingBox" id="filter-6">
            <feOffset dx="-1" dy="2" in="SourceAlpha" result="shadowOffsetOuter1"></feOffset>
            <feColorMatrix values="0 0 0 0 0.270588235   0 0 0 0 0.77254902   0 0 0 0 0.77254902  0 0 0 1 0" type="matrix" in="shadowOffsetOuter1"></feColorMatrix>
        </filter>
        <path d="M91.1071893,331.731982 C88.3351722,332.297292 85.4654851,332.594118 82.5264706,332.594118 C58.9357899,332.594118 39.8117647,313.470092 39.8117647,289.879412 C39.8117647,266.288731 58.9357899,247.164706 82.5264706,247.164706 C106.117151,247.164706 125.241176,266.288731 125.241176,289.879412 C125.241176,295.75639 124.054297,301.356158 121.907158,306.452095 L102.675988,280.93147 L70.8808985,304.890788 L91.1071893,331.731982 Z M82.9411765,373.235294 C128.748323,373.235294 165.882353,336.101265 165.882353,290.294118 C165.882353,244.486971 128.748323,207.352941 82.9411765,207.352941 C37.1340296,207.352941 2.84217094e-14,244.486971 2.84217094e-14,290.294118 C2.84217094e-14,336.101265 37.1340296,373.235294 82.9411765,373.235294 Z" id="path-7"></path>
        <filter x="-50%" y="-50%" width="200%" height="200%" filterUnits="objectBoundingBox" id="filter-8">
            <feOffset dx="-1" dy="2" in="SourceAlpha" result="shadowOffsetOuter1"></feOffset>
            <feColorMatrix values="0 0 0 0 0.270588235   0 0 0 0 0.77254902   0 0 0 0 0.77254902  0 0 0 1 0" type="matrix" in="shadowOffsetOuter1"></feColorMatrix>
        </filter>
        <path d="M298.46013,331.731982 C295.688113,332.297292 292.818426,332.594118 289.879412,332.594118 C266.288731,332.594118 247.164706,313.470092 247.164706,289.879412 C247.164706,266.288731 266.288731,247.164706 289.879412,247.164706 C313.470092,247.164706 332.594118,266.288731 332.594118,289.879412 C332.594118,295.75639 331.407238,301.356158 329.260099,306.452095 L310.028929,280.93147 L278.23384,304.890788 L298.46013,331.731982 Z M290.294118,373.235294 C336.101265,373.235294 373.235294,336.101265 373.235294,290.294118 C373.235294,244.486971 336.101265,207.352941 290.294118,207.352941 C244.486971,207.352941 207.352941,244.486971 207.352941,290.294118 C207.352941,336.101265 244.486971,373.235294 290.294118,373.235294 Z" id="path-9"></path>
        <filter x="-50%" y="-50%" width="200%" height="200%" filterUnits="objectBoundingBox" id="filter-10">
            <feOffset dx="-1" dy="2" in="SourceAlpha" result="shadowOffsetOuter1"></feOffset>
            <feColorMatrix values="0 0 0 0 0.270588235   0 0 0 0 0.77254902   0 0 0 0 0.77254902  0 0 0 1 0" type="matrix" in="shadowOffsetOuter1"></feColorMatrix>
        </filter>
        <path d="M505.813072,331.731982 C503.041055,332.297292 500.171367,332.594118 497.232353,332.594118 C473.641672,332.594118 454.517647,313.470092 454.517647,289.879412 C454.517647,266.288731 473.641672,247.164706 497.232353,247.164706 C520.823034,247.164706 539.947059,266.288731 539.947059,289.879412 C539.947059,295.75639 538.76018,301.356158 536.613041,306.452095 L517.38187,280.93147 L485.586781,304.890788 L505.813072,331.731982 Z M497.647059,373.235294 C543.454206,373.235294 580.588235,336.101265 580.588235,290.294118 C580.588235,244.486971 543.454206,207.352941 497.647059,207.352941 C451.839912,207.352941 414.705882,244.486971 414.705882,290.294118 C414.705882,336.101265 451.839912,373.235294 497.647059,373.235294 Z" id="path-11"></path>
        <filter x="-50%" y="-50%" width="200%" height="200%" filterUnits="objectBoundingBox" id="filter-12">
            <feOffset dx="-1" dy="2" in="SourceAlpha" result="shadowOffsetOuter1"></feOffset>
            <feColorMatrix values="0 0 0 0 0.270588235   0 0 0 0 0.77254902   0 0 0 0 0.77254902  0 0 0 1 0" type="matrix" in="shadowOffsetOuter1"></feColorMatrix>
        </filter>
        <path d="M91.1071893,539.084924 C88.3351722,539.650233 85.4654851,539.947059 82.5264706,539.947059 C58.9357899,539.947059 39.8117647,520.823034 39.8117647,497.232353 C39.8117647,473.641672 58.9357899,454.517647 82.5264706,454.517647 C106.117151,454.517647 125.241176,473.641672 125.241176,497.232353 C125.241176,503.109331 124.054297,508.709099 121.907158,513.805037 L102.675988,488.284411 L70.8808985,512.243729 L91.1071893,539.084924 Z M82.9411765,580.588235 C128.748323,580.588235 165.882353,543.454206 165.882353,497.647059 C165.882353,451.839912 128.748323,414.705882 82.9411765,414.705882 C37.1340296,414.705882 8.52651283e-14,451.839912 8.52651283e-14,497.647059 C8.52651283e-14,543.454206 37.1340296,580.588235 82.9411765,580.588235 Z" id="path-13"></path>
        <filter x="-50%" y="-50%" width="200%" height="200%" filterUnits="objectBoundingBox" id="filter-14">
            <feOffset dx="-1" dy="2" in="SourceAlpha" result="shadowOffsetOuter1"></feOffset>
            <feColorMatrix values="0 0 0 0 0.270588235   0 0 0 0 0.77254902   0 0 0 0 0.77254902  0 0 0 1 0" type="matrix" in="shadowOffsetOuter1"></feColorMatrix>
        </filter>
        <path d="M298.46013,539.084924 C295.688113,539.650233 292.818426,539.947059 289.879412,539.947059 C266.288731,539.947059 247.164706,520.823034 247.164706,497.232353 C247.164706,473.641672 266.288731,454.517647 289.879412,454.517647 C313.470092,454.517647 332.594118,473.641672 332.594118,497.232353 C332.594118,503.109331 331.407238,508.709099 329.260099,513.805037 L310.028929,488.284411 L278.23384,512.243729 L298.46013,539.084924 Z M290.294118,580.588235 C336.101265,580.588235 373.235294,543.454206 373.235294,497.647059 C373.235294,451.839912 336.101265,414.705882 290.294118,414.705882 C244.486971,414.705882 207.352941,451.839912 207.352941,497.647059 C207.352941,543.454206 244.486971,580.588235 290.294118,580.588235 Z" id="path-15"></path>
        <filter x="-50%" y="-50%" width="200%" height="200%" filterUnits="objectBoundingBox" id="filter-16">
            <feOffset dx="-1" dy="2" in="SourceAlpha" result="shadowOffsetOuter1"></feOffset>
            <feColorMatrix values="0 0 0 0 0.270588235   0 0 0 0 0.77254902   0 0 0 0 0.77254902  0 0 0 1 0" type="matrix" in="shadowOffsetOuter1"></feColorMatrix>
        </filter>
        <path d="M505.813072,539.084924 C503.041055,539.650233 500.171367,539.947059 497.232353,539.947059 C473.641672,539.947059 454.517647,520.823034 454.517647,497.232353 C454.517647,473.641672 473.641672,454.517647 497.232353,454.517647 C520.823034,454.517647 539.947059,473.641672 539.947059,497.232353 C539.947059,503.109331 538.76018,508.709099 536.613041,513.805037 L517.38187,488.284411 L485.586781,512.243729 L505.813072,539.084924 Z M497.647059,580.588235 C543.454206,580.588235 580.588235,543.454206 580.588235,497.647059 C580.588235,451.839912 543.454206,414.705882 497.647059,414.705882 C451.839912,414.705882 414.705882,451.839912 414.705882,497.647059 C414.705882,543.454206 451.839912,580.588235 497.647059,580.588235 Z" id="path-17"></path>
        <filter x="-50%" y="-50%" width="200%" height="200%" filterUnits="objectBoundingBox" id="filter-18">
            <feOffset dx="-1" dy="2" in="SourceAlpha" result="shadowOffsetOuter1"></feOffset>
            <feColorMatrix values="0 0 0 0 0.270588235   0 0 0 0 0.77254902   0 0 0 0 0.77254902  0 0 0 1 0" type="matrix" in="shadowOffsetOuter1"></feColorMatrix>
        </filter>
        <path d="M91.1071893,746.437865 C88.3351722,747.003174 85.4654851,747.3 82.5264706,747.3 C58.9357899,747.3 39.8117647,728.175975 39.8117647,704.585294 C39.8117647,680.994613 58.9357899,661.870588 82.5264706,661.870588 C106.117151,661.870588 125.241176,680.994613 125.241176,704.585294 C125.241176,710.462272 124.054297,716.06204 121.907158,721.157978 L102.675988,695.637352 L70.8808985,719.59667 L91.1071893,746.437865 Z M82.9411765,787.941176 C128.748323,787.941176 165.882353,750.807147 165.882353,705 C165.882353,659.192853 128.748323,622.058824 82.9411765,622.058824 C37.1340296,622.058824 2.84217094e-14,659.192853 2.84217094e-14,705 C2.84217094e-14,750.807147 37.1340296,787.941176 82.9411765,787.941176 Z" id="path-19"></path>
        <filter x="-50%" y="-50%" width="200%" height="200%" filterUnits="objectBoundingBox" id="filter-20">
            <feOffset dx="-1" dy="2" in="SourceAlpha" result="shadowOffsetOuter1"></feOffset>
            <feColorMatrix values="0 0 0 0 0.270588235   0 0 0 0 0.77254902   0 0 0 0 0.77254902  0 0 0 1 0" type="matrix" in="shadowOffsetOuter1"></feColorMatrix>
        </filter>
        <path d="M298.46013,746.437865 C295.688113,747.003174 292.818426,747.3 289.879412,747.3 C266.288731,747.3 247.164706,728.175975 247.164706,704.585294 C247.164706,680.994613 266.288731,661.870588 289.879412,661.870588 C313.470092,661.870588 332.594118,680.994613 332.594118,704.585294 C332.594118,710.462272 331.407238,716.06204 329.260099,721.157978 L310.028929,695.637352 L278.23384,719.59667 L298.46013,746.437865 Z M290.294118,787.941176 C336.101265,787.941176 373.235294,750.807147 373.235294,705 C373.235294,659.192853 336.101265,622.058824 290.294118,622.058824 C244.486971,622.058824 207.352941,659.192853 207.352941,705 C207.352941,750.807147 244.486971,787.941176 290.294118,787.941176 Z" id="path-21"></path>
        <filter x="-50%" y="-50%" width="200%" height="200%" filterUnits="objectBoundingBox" id="filter-22">
            <feOffset dx="-1" dy="2" in="SourceAlpha" result="shadowOffsetOuter1"></feOffset>
            <feColorMatrix values="0 0 0 0 0.270588235   0 0 0 0 0.77254902   0 0 0 0 0.77254902  0 0 0 1 0" type="matrix" in="shadowOffsetOuter1"></feColorMatrix>
        </filter>
        <path d="M505.813072,746.437865 C503.041055,747.003174 500.171367,747.3 497.232353,747.3 C473.641672,747.3 454.517647,728.175975 454.517647,704.585294 C454.517647,680.994613 473.641672,661.870588 497.232353,661.870588 C520.823034,661.870588 539.947059,680.994613 539.947059,704.585294 C539.947059,710.462272 538.76018,716.06204 536.613041,721.157978 L517.38187,695.637352 L485.586781,719.59667 L505.813072,746.437865 Z M497.647059,787.941176 C543.454206,787.941176 580.588235,750.807147 580.588235,705 C580.588235,659.192853 543.454206,622.058824 497.647059,622.058824 C451.839912,622.058824 414.705882,659.192853 414.705882,705 C414.705882,750.807147 451.839912,787.941176 497.647059,787.941176 Z" id="path-23"></path>
        <filter x="-50%" y="-50%" width="200%" height="200%" filterUnits="objectBoundingBox" id="filter-24">
            <feOffset dx="-1" dy="2" in="SourceAlpha" result="shadowOffsetOuter1"></feOffset>
            <feColorMatrix values="0 0 0 0 0.270588235   0 0 0 0 0.77254902   0 0 0 0 0.77254902  0 0 0 1 0" type="matrix" in="shadowOffsetOuter1"></feColorMatrix>
        </filter>
        <path d="M505.813072,953.790806 C503.041055,954.356115 500.171367,954.652941 497.232353,954.652941 C473.641672,954.652941 454.517647,935.528916 454.517647,911.938235 C454.517647,888.347555 473.641672,869.223529 497.232353,869.223529 C520.823034,869.223529 539.947059,888.347555 539.947059,911.938235 C539.947059,917.815213 538.76018,923.414981 536.613041,928.510919 L517.38187,902.990293 L485.586781,926.949612 L505.813072,953.790806 Z M497.647059,995.294118 C543.454206,995.294118 580.588235,958.160088 580.588235,912.352941 C580.588235,866.545794 543.454206,829.411765 497.647059,829.411765 C451.839912,829.411765 414.705882,866.545794 414.705882,912.352941 C414.705882,958.160088 451.839912,995.294118 497.647059,995.294118 Z" id="path-25"></path>
        <filter x="-50%" y="-50%" width="200%" height="200%" filterUnits="objectBoundingBox" id="filter-26">
            <feOffset dx="-1" dy="2" in="SourceAlpha" result="shadowOffsetOuter1"></feOffset>
            <feColorMatrix values="0 0 0 0 0.270588235   0 0 0 0 0.77254902   0 0 0 0 0.77254902  0 0 0 1 0" type="matrix" in="shadowOffsetOuter1"></feColorMatrix>
        </filter>
        <path d="M713.166013,124.379041 C710.393996,124.944351 707.524309,125.241176 704.585294,125.241176 C680.994613,125.241176 661.870588,106.117151 661.870588,82.5264706 C661.870588,58.9357899 680.994613,39.8117647 704.585294,39.8117647 C728.175975,39.8117647 747.3,58.9357899 747.3,82.5264706 C747.3,88.4034487 746.113121,94.0032163 743.965982,99.0991542 L724.734811,73.5785287 L692.939722,97.5378468 L713.166013,124.379041 Z M705,165.882353 C750.807147,165.882353 787.941176,128.748323 787.941176,82.9411765 C787.941176,37.1340296 750.807147,2.84217094e-14 705,2.84217094e-14 C659.192853,2.84217094e-14 622.058824,37.1340296 622.058824,82.9411765 C622.058824,128.748323 659.192853,165.882353 705,165.882353 Z" id="path-27"></path>
        <filter x="-50%" y="-50%" width="200%" height="200%" filterUnits="objectBoundingBox" id="filter-28">
            <feOffset dx="-1" dy="2" in="SourceAlpha" result="shadowOffsetOuter1"></feOffset>
            <feColorMatrix values="0 0 0 0 0.270588235   0 0 0 0 0.77254902   0 0 0 0 0.77254902  0 0 0 1 0" type="matrix" in="shadowOffsetOuter1"></feColorMatrix>
        </filter>
        <path d="M713.166013,331.731982 C710.393996,332.297292 707.524309,332.594118 704.585294,332.594118 C680.994613,332.594118 661.870588,313.470092 661.870588,289.879412 C661.870588,266.288731 680.994613,247.164706 704.585294,247.164706 C728.175975,247.164706 747.3,266.288731 747.3,289.879412 C747.3,295.75639 746.113121,301.356158 743.965982,306.452095 L724.734811,280.93147 L692.939722,304.890788 L713.166013,331.731982 Z M705,373.235294 C750.807147,373.235294 787.941176,336.101265 787.941176,290.294118 C787.941176,244.486971 750.807147,207.352941 705,207.352941 C659.192853,207.352941 622.058824,244.486971 622.058824,290.294118 C622.058824,336.101265 659.192853,373.235294 705,373.235294 Z" id="path-29"></path>
        <filter x="-50%" y="-50%" width="200%" height="200%" filterUnits="objectBoundingBox" id="filter-30">
            <feOffset dx="-1" dy="2" in="SourceAlpha" result="shadowOffsetOuter1"></feOffset>
            <feColorMatrix values="0 0 0 0 0.270588235   0 0 0 0 0.77254902   0 0 0 0 0.77254902  0 0 0 1 0" type="matrix" in="shadowOffsetOuter1"></feColorMatrix>
        </filter>
        <path d="M713.166013,539.084924 C710.393996,539.650233 707.524309,539.947059 704.585294,539.947059 C680.994613,539.947059 661.870588,520.823034 661.870588,497.232353 C661.870588,473.641672 680.994613,454.517647 704.585294,454.517647 C728.175975,454.517647 747.3,473.641672 747.3,497.232353 C747.3,503.109331 746.113121,508.709099 743.965982,513.805037 L724.734811,488.284411 L692.939722,512.243729 L713.166013,539.084924 Z M705,580.588235 C750.807147,580.588235 787.941176,543.454206 787.941176,497.647059 C787.941176,451.839912 750.807147,414.705882 705,414.705882 C659.192853,414.705882 622.058824,451.839912 622.058824,497.647059 C622.058824,543.454206 659.192853,580.588235 705,580.588235 Z" id="path-31"></path>
        <filter x="-50%" y="-50%" width="200%" height="200%" filterUnits="objectBoundingBox" id="filter-32">
            <feOffset dx="-1" dy="2" in="SourceAlpha" result="shadowOffsetOuter1"></feOffset>
            <feColorMatrix values="0 0 0 0 0.270588235   0 0 0 0 0.77254902   0 0 0 0 0.77254902  0 0 0 1 0" type="matrix" in="shadowOffsetOuter1"></feColorMatrix>
        </filter>
        <path d="M713.166013,746.437865 C710.393996,747.003174 707.524309,747.3 704.585294,747.3 C680.994613,747.3 661.870588,728.175975 661.870588,704.585294 C661.870588,680.994613 680.994613,661.870588 704.585294,661.870588 C728.175975,661.870588 747.3,680.994613 747.3,704.585294 C747.3,710.462272 746.113121,716.06204 743.965982,721.157978 L724.734811,695.637352 L692.939722,719.59667 L713.166013,746.437865 Z M705,787.941176 C750.807147,787.941176 787.941176,750.807147 787.941176,705 C787.941176,659.192853 750.807147,622.058824 705,622.058824 C659.192853,622.058824 622.058824,659.192853 622.058824,705 C622.058824,750.807147 659.192853,787.941176 705,787.941176 Z" id="path-33"></path>
        <filter x="-50%" y="-50%" width="200%" height="200%" filterUnits="objectBoundingBox" id="filter-34">
            <feOffset dx="-1" dy="2" in="SourceAlpha" result="shadowOffsetOuter1"></feOffset>
            <feColorMatrix values="0 0 0 0 0.270588235   0 0 0 0 0.77254902   0 0 0 0 0.77254902  0 0 0 1 0" type="matrix" in="shadowOffsetOuter1"></feColorMatrix>
        </filter>
        <path d="M713.166013,953.790806 C710.393996,954.356115 707.524309,954.652941 704.585294,954.652941 C680.994613,954.652941 661.870588,935.528916 661.870588,911.938235 C661.870588,888.347555 680.994613,869.223529 704.585294,869.223529 C728.175975,869.223529 747.3,888.347555 747.3,911.938235 C747.3,917.815213 746.113121,923.414981 743.965982,928.510919 L724.734811,902.990293 L692.939722,926.949612 L713.166013,953.790806 Z M705,995.294118 C750.807147,995.294118 787.941176,958.160088 787.941176,912.352941 C787.941176,866.545794 750.807147,829.411765 705,829.411765 C659.192853,829.411765 622.058824,866.545794 622.058824,912.352941 C622.058824,958.160088 659.192853,995.294118 705,995.294118 Z" id="path-35"></path>
        <filter x="-50%" y="-50%" width="200%" height="200%" filterUnits="objectBoundingBox" id="filter-36">
            <feOffset dx="-1" dy="2" in="SourceAlpha" result="shadowOffsetOuter1"></feOffset>
            <feColorMatrix values="0 0 0 0 0.270588235   0 0 0 0 0.77254902   0 0 0 0 0.77254902  0 0 0 1 0" type="matrix" in="shadowOffsetOuter1"></feColorMatrix>
        </filter>
        <path d="M920.518954,124.379041 C917.746937,124.944351 914.87725,125.241176 911.938235,125.241176 C888.347555,125.241176 869.223529,106.117151 869.223529,82.5264706 C869.223529,58.9357899 888.347555,39.8117647 911.938235,39.8117647 C935.528916,39.8117647 954.652941,58.9357899 954.652941,82.5264706 C954.652941,88.4034487 953.466062,94.0032163 951.318923,99.0991542 L932.087752,73.5785287 L900.292663,97.5378468 L920.518954,124.379041 Z M912.352941,165.882353 C958.160088,165.882353 995.294118,128.748323 995.294118,82.9411765 C995.294118,37.1340296 958.160088,-2.27373675e-13 912.352941,-2.27373675e-13 C866.545794,-2.27373675e-13 829.411765,37.1340296 829.411765,82.9411765 C829.411765,128.748323 866.545794,165.882353 912.352941,165.882353 Z" id="path-37"></path>
        <filter x="-50%" y="-50%" width="200%" height="200%" filterUnits="objectBoundingBox" id="filter-38">
            <feOffset dx="-1" dy="2" in="SourceAlpha" result="shadowOffsetOuter1"></feOffset>
            <feColorMatrix values="0 0 0 0 0.270588235   0 0 0 0 0.77254902   0 0 0 0 0.77254902  0 0 0 1 0" type="matrix" in="shadowOffsetOuter1"></feColorMatrix>
        </filter>
        <path d="M920.518954,331.731982 C917.746937,332.297292 914.87725,332.594118 911.938235,332.594118 C888.347555,332.594118 869.223529,313.470092 869.223529,289.879412 C869.223529,266.288731 888.347555,247.164706 911.938235,247.164706 C935.528916,247.164706 954.652941,266.288731 954.652941,289.879412 C954.652941,295.75639 953.466062,301.356158 951.318923,306.452095 L932.087752,280.93147 L900.292663,304.890788 L920.518954,331.731982 Z M912.352941,373.235294 C958.160088,373.235294 995.294118,336.101265 995.294118,290.294118 C995.294118,244.486971 958.160088,207.352941 912.352941,207.352941 C866.545794,207.352941 829.411765,244.486971 829.411765,290.294118 C829.411765,336.101265 866.545794,373.235294 912.352941,373.235294 Z" id="path-39"></path>
        <filter x="-50%" y="-50%" width="200%" height="200%" filterUnits="objectBoundingBox" id="filter-40">
            <feOffset dx="-1" dy="2" in="SourceAlpha" result="shadowOffsetOuter1"></feOffset>
            <feColorMatrix values="0 0 0 0 0.270588235   0 0 0 0 0.77254902   0 0 0 0 0.77254902  0 0 0 1 0" type="matrix" in="shadowOffsetOuter1"></feColorMatrix>
        </filter>
        <path d="M920.518954,539.084924 C917.746937,539.650233 914.87725,539.947059 911.938235,539.947059 C888.347555,539.947059 869.223529,520.823034 869.223529,497.232353 C869.223529,473.641672 888.347555,454.517647 911.938235,454.517647 C935.528916,454.517647 954.652941,473.641672 954.652941,497.232353 C954.652941,503.109331 953.466062,508.709099 951.318923,513.805037 L932.087752,488.284411 L900.292663,512.243729 L920.518954,539.084924 Z M912.352941,580.588235 C958.160088,580.588235 995.294118,543.454206 995.294118,497.647059 C995.294118,451.839912 958.160088,414.705882 912.352941,414.705882 C866.545794,414.705882 829.411765,451.839912 829.411765,497.647059 C829.411765,543.454206 866.545794,580.588235 912.352941,580.588235 Z" id="path-41"></path>
        <filter x="-50%" y="-50%" width="200%" height="200%" filterUnits="objectBoundingBox" id="filter-42">
            <feOffset dx="-1" dy="2" in="SourceAlpha" result="shadowOffsetOuter1"></feOffset>
            <feColorMatrix values="0 0 0 0 0.270588235   0 0 0 0 0.77254902   0 0 0 0 0.77254902  0 0 0 1 0" type="matrix" in="shadowOffsetOuter1"></feColorMatrix>
        </filter>
        <path d="M920.518954,746.437865 C917.746937,747.003174 914.87725,747.3 911.938235,747.3 C888.347555,747.3 869.223529,728.175975 869.223529,704.585294 C869.223529,680.994613 888.347555,661.870588 911.938235,661.870588 C935.528916,661.870588 954.652941,680.994613 954.652941,704.585294 C954.652941,710.462272 953.466062,716.06204 951.318923,721.157978 L932.087752,695.637352 L900.292663,719.59667 L920.518954,746.437865 Z M912.352941,787.941176 C958.160088,787.941176 995.294118,750.807147 995.294118,705 C995.294118,659.192853 958.160088,622.058824 912.352941,622.058824 C866.545794,622.058824 829.411765,659.192853 829.411765,705 C829.411765,750.807147 866.545794,787.941176 912.352941,787.941176 Z" id="path-43"></path>
        <filter x="-50%" y="-50%" width="200%" height="200%" filterUnits="objectBoundingBox" id="filter-44">
            <feOffset dx="-1" dy="2" in="SourceAlpha" result="shadowOffsetOuter1"></feOffset>
            <feColorMatrix values="0 0 0 0 0.270588235   0 0 0 0 0.77254902   0 0 0 0 0.77254902  0 0 0 1 0" type="matrix" in="shadowOffsetOuter1"></feColorMatrix>
        </filter>
        <path d="M920.518954,953.790806 C917.746937,954.356115 914.87725,954.652941 911.938235,954.652941 C888.347555,954.652941 869.223529,935.528916 869.223529,911.938235 C869.223529,888.347555 888.347555,869.223529 911.938235,869.223529 C935.528916,869.223529 954.652941,888.347555 954.652941,911.938235 C954.652941,917.815213 953.466062,923.414981 951.318923,928.510919 L932.087752,902.990293 L900.292663,926.949612 L920.518954,953.790806 Z M912.352941,995.294118 C958.160088,995.294118 995.294118,958.160088 995.294118,912.352941 C995.294118,866.545794 958.160088,829.411765 912.352941,829.411765 C866.545794,829.411765 829.411765,866.545794 829.411765,912.352941 C829.411765,958.160088 866.545794,995.294118 912.352941,995.294118 Z" id="path-45"></path>
        <filter x="-50%" y="-50%" width="200%" height="200%" filterUnits="objectBoundingBox" id="filter-46">
            <feOffset dx="-1" dy="2" in="SourceAlpha" result="shadowOffsetOuter1"></feOffset>
            <feColorMatrix values="0 0 0 0 0.270588235   0 0 0 0 0.77254902   0 0 0 0 0.77254902  0 0 0 1 0" type="matrix" in="shadowOffsetOuter1"></feColorMatrix>
        </filter>
        <path d="M1127.8719,331.731982 C1125.09988,332.297292 1122.23019,332.594118 1119.29118,332.594118 C1095.7005,332.594118 1076.57647,313.470092 1076.57647,289.879412 C1076.57647,266.288731 1095.7005,247.164706 1119.29118,247.164706 C1142.88186,247.164706 1162.00588,266.288731 1162.00588,289.879412 C1162.00588,295.75639 1160.819,301.356158 1158.67186,306.452095 L1139.44069,280.93147 L1107.6456,304.890788 L1127.8719,331.731982 Z M1119.70588,373.235294 C1165.51303,373.235294 1202.64706,336.101265 1202.64706,290.294118 C1202.64706,244.486971 1165.51303,207.352941 1119.70588,207.352941 C1073.89874,207.352941 1036.76471,244.486971 1036.76471,290.294118 C1036.76471,336.101265 1073.89874,373.235294 1119.70588,373.235294 Z" id="path-47"></path>
        <filter x="-50%" y="-50%" width="200%" height="200%" filterUnits="objectBoundingBox" id="filter-48">
            <feOffset dx="-1" dy="2" in="SourceAlpha" result="shadowOffsetOuter1"></feOffset>
            <feColorMatrix values="0 0 0 0 0.270588235   0 0 0 0 0.77254902   0 0 0 0 0.77254902  0 0 0 1 0" type="matrix" in="shadowOffsetOuter1"></feColorMatrix>
        </filter>
        <path d="M1127.8719,539.084924 C1125.09988,539.650233 1122.23019,539.947059 1119.29118,539.947059 C1095.7005,539.947059 1076.57647,520.823034 1076.57647,497.232353 C1076.57647,473.641672 1095.7005,454.517647 1119.29118,454.517647 C1142.88186,454.517647 1162.00588,473.641672 1162.00588,497.232353 C1162.00588,503.109331 1160.819,508.709099 1158.67186,513.805037 L1139.44069,488.284411 L1107.6456,512.243729 L1127.8719,539.084924 Z M1119.70588,580.588235 C1165.51303,580.588235 1202.64706,543.454206 1202.64706,497.647059 C1202.64706,451.839912 1165.51303,414.705882 1119.70588,414.705882 C1073.89874,414.705882 1036.76471,451.839912 1036.76471,497.647059 C1036.76471,543.454206 1073.89874,580.588235 1119.70588,580.588235 Z" id="path-49"></path>
        <filter x="-50%" y="-50%" width="200%" height="200%" filterUnits="objectBoundingBox" id="filter-50">
            <feOffset dx="-1" dy="2" in="SourceAlpha" result="shadowOffsetOuter1"></feOffset>
            <feColorMatrix values="0 0 0 0 0.270588235   0 0 0 0 0.77254902   0 0 0 0 0.77254902  0 0 0 1 0" type="matrix" in="shadowOffsetOuter1"></feColorMatrix>
        </filter>
        <path d="M1127.8719,746.437865 C1125.09988,747.003174 1122.23019,747.3 1119.29118,747.3 C1095.7005,747.3 1076.57647,728.175975 1076.57647,704.585294 C1076.57647,680.994613 1095.7005,661.870588 1119.29118,661.870588 C1142.88186,661.870588 1162.00588,680.994613 1162.00588,704.585294 C1162.00588,710.462272 1160.819,716.06204 1158.67186,721.157978 L1139.44069,695.637352 L1107.6456,719.59667 L1127.8719,746.437865 Z M1119.70588,787.941176 C1165.51303,787.941176 1202.64706,750.807147 1202.64706,705 C1202.64706,659.192853 1165.51303,622.058824 1119.70588,622.058824 C1073.89874,622.058824 1036.76471,659.192853 1036.76471,705 C1036.76471,750.807147 1073.89874,787.941176 1119.70588,787.941176 Z" id="path-51"></path>
        <filter x="-50%" y="-50%" width="200%" height="200%" filterUnits="objectBoundingBox" id="filter-52">
            <feOffset dx="-1" dy="2" in="SourceAlpha" result="shadowOffsetOuter1"></feOffset>
            <feColorMatrix values="0 0 0 0 0.270588235   0 0 0 0 0.77254902   0 0 0 0 0.77254902  0 0 0 1 0" type="matrix" in="shadowOffsetOuter1"></feColorMatrix>
        </filter>
        <path d="M1127.8719,953.790806 C1125.09988,954.356115 1122.23019,954.652941 1119.29118,954.652941 C1095.7005,954.652941 1076.57647,935.528916 1076.57647,911.938235 C1076.57647,888.347555 1095.7005,869.223529 1119.29118,869.223529 C1142.88186,869.223529 1162.00588,888.347555 1162.00588,911.938235 C1162.00588,917.815213 1160.819,923.414981 1158.67186,928.510919 L1139.44069,902.990293 L1107.6456,926.949612 L1127.8719,953.790806 Z M1119.70588,995.294118 C1165.51303,995.294118 1202.64706,958.160088 1202.64706,912.352941 C1202.64706,866.545794 1165.51303,829.411765 1119.70588,829.411765 C1073.89874,829.411765 1036.76471,866.545794 1036.76471,912.352941 C1036.76471,958.160088 1073.89874,995.294118 1119.70588,995.294118 Z" id="path-53"></path>
        <filter x="-50%" y="-50%" width="200%" height="200%" filterUnits="objectBoundingBox" id="filter-54">
            <feOffset dx="-1" dy="2" in="SourceAlpha" result="shadowOffsetOuter1"></feOffset>
            <feColorMatrix values="0 0 0 0 0.270588235   0 0 0 0 0.77254902   0 0 0 0 0.77254902  0 0 0 1 0" type="matrix" in="shadowOffsetOuter1"></feColorMatrix>
        </filter>
        <path d="M1335.22484,331.731982 C1332.45282,332.297292 1329.58313,332.594118 1326.64412,332.594118 C1303.05344,332.594118 1283.92941,313.470092 1283.92941,289.879412 C1283.92941,266.288731 1303.05344,247.164706 1326.64412,247.164706 C1350.2348,247.164706 1369.35882,266.288731 1369.35882,289.879412 C1369.35882,295.75639 1368.17194,301.356158 1366.02481,306.452095 L1346.79363,280.93147 L1314.99855,304.890788 L1335.22484,331.731982 Z M1327.05882,373.235294 C1372.86597,373.235294 1410,336.101265 1410,290.294118 C1410,244.486971 1372.86597,207.352941 1327.05882,207.352941 C1281.25168,207.352941 1244.11765,244.486971 1244.11765,290.294118 C1244.11765,336.101265 1281.25168,373.235294 1327.05882,373.235294 Z" id="path-55"></path>
        <filter x="-50%" y="-50%" width="200%" height="200%" filterUnits="objectBoundingBox" id="filter-56">
            <feOffset dx="-1" dy="2" in="SourceAlpha" result="shadowOffsetOuter1"></feOffset>
            <feColorMatrix values="0 0 0 0 0.270588235   0 0 0 0 0.77254902   0 0 0 0 0.77254902  0 0 0 1 0" type="matrix" in="shadowOffsetOuter1"></feColorMatrix>
        </filter>
        <path d="M1335.22484,539.084924 C1332.45282,539.650233 1329.58313,539.947059 1326.64412,539.947059 C1303.05344,539.947059 1283.92941,520.823034 1283.92941,497.232353 C1283.92941,473.641672 1303.05344,454.517647 1326.64412,454.517647 C1350.2348,454.517647 1369.35882,473.641672 1369.35882,497.232353 C1369.35882,503.109331 1368.17194,508.709099 1366.02481,513.805037 L1346.79363,488.284411 L1314.99855,512.243729 L1335.22484,539.084924 Z M1327.05882,580.588235 C1372.86597,580.588235 1410,543.454206 1410,497.647059 C1410,451.839912 1372.86597,414.705882 1327.05882,414.705882 C1281.25168,414.705882 1244.11765,451.839912 1244.11765,497.647059 C1244.11765,543.454206 1281.25168,580.588235 1327.05882,580.588235 Z" id="path-57"></path>
        <filter x="-50%" y="-50%" width="200%" height="200%" filterUnits="objectBoundingBox" id="filter-58">
            <feOffset dx="-1" dy="2" in="SourceAlpha" result="shadowOffsetOuter1"></feOffset>
            <feColorMatrix values="0 0 0 0 0.270588235   0 0 0 0 0.77254902   0 0 0 0 0.77254902  0 0 0 1 0" type="matrix" in="shadowOffsetOuter1"></feColorMatrix>
        </filter>
        <path d="M1335.22484,746.437865 C1332.45282,747.003174 1329.58313,747.3 1326.64412,747.3 C1303.05344,747.3 1283.92941,728.175975 1283.92941,704.585294 C1283.92941,680.994613 1303.05344,661.870588 1326.64412,661.870588 C1350.2348,661.870588 1369.35882,680.994613 1369.35882,704.585294 C1369.35882,710.462272 1368.17194,716.06204 1366.02481,721.157978 L1346.79363,695.637352 L1314.99855,719.59667 L1335.22484,746.437865 Z M1327.05882,787.941176 C1372.86597,787.941176 1410,750.807147 1410,705 C1410,659.192853 1372.86597,622.058824 1327.05882,622.058824 C1281.25168,622.058824 1244.11765,659.192853 1244.11765,705 C1244.11765,750.807147 1281.25168,787.941176 1327.05882,787.941176 Z" id="path-59"></path>
        <filter x="-50%" y="-50%" width="200%" height="200%" filterUnits="objectBoundingBox" id="filter-60">
            <feOffset dx="-1" dy="2" in="SourceAlpha" result="shadowOffsetOuter1"></feOffset>
            <feColorMatrix values="0 0 0 0 0.270588235   0 0 0 0 0.77254902   0 0 0 0 0.77254902  0 0 0 1 0" type="matrix" in="shadowOffsetOuter1"></feColorMatrix>
        </filter>
        <path d="M1335.22484,953.790806 C1332.45282,954.356115 1329.58313,954.652941 1326.64412,954.652941 C1303.05344,954.652941 1283.92941,935.528916 1283.92941,911.938235 C1283.92941,888.347555 1303.05344,869.223529 1326.64412,869.223529 C1350.2348,869.223529 1369.35882,888.347555 1369.35882,911.938235 C1369.35882,917.815213 1368.17194,923.414981 1366.02481,928.510919 L1346.79363,902.990293 L1314.99855,926.949612 L1335.22484,953.790806 Z M1327.05882,995.294118 C1372.86597,995.294118 1410,958.160088 1410,912.352941 C1410,866.545794 1372.86597,829.411765 1327.05882,829.411765 C1281.25168,829.411765 1244.11765,866.545794 1244.11765,912.352941 C1244.11765,958.160088 1281.25168,995.294118 1327.05882,995.294118 Z" id="path-61"></path>
        <filter x="-50%" y="-50%" width="200%" height="200%" filterUnits="objectBoundingBox" id="filter-62">
            <feOffset dx="-1" dy="2" in="SourceAlpha" result="shadowOffsetOuter1"></feOffset>
            <feColorMatrix values="0 0 0 0 0.270588235   0 0 0 0 0.77254902   0 0 0 0 0.77254902  0 0 0 1 0" type="matrix" in="shadowOffsetOuter1"></feColorMatrix>
        </filter>
        <linearGradient x1="0%" y1="50%" x2="100%" y2="50%" id="linearGradient-63">
            <stop stop-color="#98F0F0" stop-opacity="0.7" offset="0%"></stop>
            <stop stop-color="#FFE7AB" stop-opacity="0.7" offset="100%"></stop>
        </linearGradient>
    </defs>
    <g id="Lecturer---Desktop" stroke="none" stroke-width="1" fill="none" fill-rule="evenodd">
        <g id="#L---Prepare-for-Quiz-2">
            <g id="background" transform="translate(-170.000000, -304.000000)">
                <g id="Background-pattern" transform="translate(810.091348, 663.987974) rotate(-15.000000) translate(-810.091348, -663.987974) translate(105.091348, 165.987974)">
                    <g id="Combined-Shape">
                        <use fill="black" fill-opacity="1" filter="url(#filter-2)" xlink:href="#path-1"></use>
                        <use fill="#9BF3F3" fill-rule="evenodd" xlink:href="#path-1"></use>
                    </g>
                    <g id="Combined-Shape-Copy">
                        <use fill="black" fill-opacity="1" filter="url(#filter-4)" xlink:href="#path-3"></use>
                        <use fill="#9BF3F3" fill-rule="evenodd" xlink:href="#path-3"></use>
                    </g>
                    <g id="Combined-Shape-Copy-2">
                        <use fill="black" fill-opacity="1" filter="url(#filter-6)" xlink:href="#path-5"></use>
                        <use fill="#9BF3F3" fill-rule="evenodd" xlink:href="#path-5"></use>
                    </g>
                    <g id="Combined-Shape-Copy-5">
                        <use fill="black" fill-opacity="1" filter="url(#filter-8)" xlink:href="#path-7"></use>
                        <use fill="#9BF3F3" fill-rule="evenodd" xlink:href="#path-7"></use>
                    </g>
                    <g id="Combined-Shape-Copy-4">
                        <use fill="black" fill-opacity="1" filter="url(#filter-10)" xlink:href="#path-9"></use>
                        <use fill="#9BF3F3" fill-rule="evenodd" xlink:href="#path-9"></use>
                    </g>
                    <g id="Combined-Shape-Copy-3">
                        <use fill="black" fill-opacity="1" filter="url(#filter-12)" xlink:href="#path-11"></use>
                        <use fill="#9BF3F3" fill-rule="evenodd" xlink:href="#path-11"></use>
                    </g>
                    <g id="Combined-Shape-Copy-11">
                        <use fill="black" fill-opacity="1" filter="url(#filter-14)" xlink:href="#path-13"></use>
                        <use fill="#9BF3F3" fill-rule="evenodd" xlink:href="#path-13"></use>
                    </g>
                    <g id="Combined-Shape-Copy-10">
                        <use fill="black" fill-opacity="1" filter="url(#filter-16)" xlink:href="#path-15"></use>
                        <use fill="#9BF3F3" fill-rule="evenodd" xlink:href="#path-15"></use>
                    </g>
                    <g id="Combined-Shape-Copy-9">
                        <use fill="black" fill-opacity="1" filter="url(#filter-18)" xlink:href="#path-17"></use>
                        <use fill="#9BF3F3" fill-rule="evenodd" xlink:href="#path-17"></use>
                    </g>
                    <g id="Combined-Shape-Copy-8">
                        <use fill="black" fill-opacity="1" filter="url(#filter-20)" xlink:href="#path-19"></use>
                        <use fill="#9BF3F3" fill-rule="evenodd" xlink:href="#path-19"></use>
                    </g>
                    <g id="Combined-Shape-Copy-7">
                        <use fill="black" fill-opacity="1" filter="url(#filter-22)" xlink:href="#path-21"></use>
                        <use fill="#9BF3F3" fill-rule="evenodd" xlink:href="#path-21"></use>
                    </g>
                    <g id="Combined-Shape-Copy-6">
                        <use fill="black" fill-opacity="1" filter="url(#filter-24)" xlink:href="#path-23"></use>
                        <use fill="#9BF3F3" fill-rule="evenodd" xlink:href="#path-23"></use>
                    </g>
                    <g id="Combined-Shape-Copy-12">
                        <use fill="black" fill-opacity="1" filter="url(#filter-26)" xlink:href="#path-25"></use>
                        <use fill="#9BF3F3" fill-rule="evenodd" xlink:href="#path-25"></use>
                    </g>
                    <g id="Combined-Shape-Copy-19">
                        <use fill="black" fill-opacity="1" filter="url(#filter-28)" xlink:href="#path-27"></use>
                        <use fill="#9BF3F3" fill-rule="evenodd" xlink:href="#path-27"></use>
                    </g>
                    <g id="Combined-Shape-Copy-18">
                        <use fill="black" fill-opacity="1" filter="url(#filter-30)" xlink:href="#path-29"></use>
                        <use fill="#9BF3F3" fill-rule="evenodd" xlink:href="#path-29"></use>
                    </g>
                    <g id="Combined-Shape-Copy-17">
                        <use fill="black" fill-opacity="1" filter="url(#filter-32)" xlink:href="#path-31"></use>
                        <use fill="#9BF3F3" fill-rule="evenodd" xlink:href="#path-31"></use>
                    </g>
                    <g id="Combined-Shape-Copy-16">
                        <use fill="black" fill-opacity="1" filter="url(#filter-34)" xlink:href="#path-33"></use>
                        <use fill="#9BF3F3" fill-rule="evenodd" xlink:href="#path-33"></use>
                    </g>
                    <g id="Combined-Shape-Copy-15">
                        <use fill="black" fill-opacity="1" filter="url(#filter-36)" xlink:href="#path-35"></use>
                        <use fill="#9BF3F3" fill-rule="evenodd" xlink:href="#path-35"></use>
                    </g>
                    <g id="Combined-Shape-Copy-19">
                        <use fill="black" fill-opacity="1" filter="url(#filter-38)" xlink:href="#path-37"></use>
                        <use fill="#9BF3F3" fill-rule="evenodd" xlink:href="#path-37"></use>
                    </g>
                    <g id="Combined-Shape-Copy-18">
                        <use fill="black" fill-opacity="1" filter="url(#filter-40)" xlink:href="#path-39"></use>
                        <use fill="#9BF3F3" fill-rule="evenodd" xlink:href="#path-39"></use>
                    </g>
                    <g id="Combined-Shape-Copy-17">
                        <use fill="black" fill-opacity="1" filter="url(#filter-42)" xlink:href="#path-41"></use>
                        <use fill="#9BF3F3" fill-rule="evenodd" xlink:href="#path-41"></use>
                    </g>
                    <g id="Combined-Shape-Copy-16">
                        <use fill="black" fill-opacity="1" filter="url(#filter-44)" xlink:href="#path-43"></use>
                        <use fill="#9BF3F3" fill-rule="evenodd" xlink:href="#path-43"></use>
                    </g>
                    <g id="Combined-Shape-Copy-15">
                        <use fill="black" fill-opacity="1" filter="url(#filter-46)" xlink:href="#path-45"></use>
                        <use fill="#9BF3F3" fill-rule="evenodd" xlink:href="#path-45"></use>
                    </g>
                    <g id="Combined-Shape-Copy-18">
                        <use fill="black" fill-opacity="1" filter="url(#filter-48)" xlink:href="#path-47"></use>
                        <use fill="#9BF3F3" fill-rule="evenodd" xlink:href="#path-47"></use>
                    </g>
                    <g id="Combined-Shape-Copy-17">
                        <use fill="black" fill-opacity="1" filter="url(#filter-50)" xlink:href="#path-49"></use>
                        <use fill="#9BF3F3" fill-rule="evenodd" xlink:href="#path-49"></use>
                    </g>
                    <g id="Combined-Shape-Copy-16">
                        <use fill="black" fill-opacity="1" filter="url(#filter-52)" xlink:href="#path-51"></use>
                        <use fill="#9BF3F3" fill-rule="evenodd" xlink:href="#path-51"></use>
                    </g>
                    <g id="Combined-Shape-Copy-15">
                        <use fill="black" fill-opacity="1" filter="url(#filter-54)" xlink:href="#path-53"></use>
                        <use fill="#9BF3F3" fill-rule="evenodd" xlink:href="#path-53"></use>
                    </g>
                    <g id="Combined-Shape-Copy-18">
                        <use fill="black" fill-opacity="1" filter="url(#filter-56)" xlink:href="#path-55"></use>
                        <use fill="#9BF3F3" fill-rule="evenodd" xlink:href="#path-55"></use>
                    </g>
                    <g id="Combined-Shape-Copy-17">
                        <use fill="black" fill-opacity="1" filter="url(#filter-58)" xlink:href="#path-57"></use>
                        <use fill="#9BF3F3" fill-rule="evenodd" xlink:href="#path-57"></use>
                    </g>
                    <g id="Combined-Shape-Copy-16">
                        <use fill="black" fill-opacity="1" filter="url(#filter-60)" xlink:href="#path-59"></use>
                        <use fill="#9BF3F3" fill-rule="evenodd" xlink:href="#path-59"></use>
                    </g>
                    <g id="Combined-Shape-Copy-15">
                        <use fill="black" fill-opacity="1" filter="url(#filter-62)" xlink:href="#path-61"></use>
                        <use fill="#9BF3F3" fill-rule="evenodd" xlink:href="#path-61"></use>
                    </g>
                </g>
                <rect id="Rectangle-4" fill="url(#linearGradient-63)" x="170" y="304" width="1280" height="720"></rect>
            </g>
        </g>
    </g>
</svg>