<?xml version="1.0" encoding="UTF-8"?>
<svg width="98px" height="98px" viewBox="0 0 98 98" version="1.1" xmlns="http://www.w3.org/2000/svg" xmlns:xlink="http://www.w3.org/1999/xlink">
    <!-- Generator: Sketch 46.2 (44496) - http://www.bohemiancoding.com/sketch -->
    <title>leader_board</title>
    <desc>Created with Sketch.</desc>
    <defs></defs>
    <g id="New" stroke="none" stroke-width="1" fill="none" fill-rule="evenodd">
        <g id="leader_board" transform="translate(1.000000, 1.000000)">
            <g id="oval"></g>
            <g id="podium-trophy" transform="translate(19.000000, 17.000000)" fill-rule="nonzero">
                <path d="M20.8383505,15.0652174 L17.952381,15.0652174 C14.905931,15.0652174 12.4285714,12.6076285 12.4285714,9.58695652 L12.4285714,2.73913043 C12.4285714,1.98278804 13.04623,1.36956522 13.8095238,1.36956522 L20.7142857,1.36956522 C21.4775795,1.36956522 22.0952381,1.98278804 22.0952381,2.73913043 C22.0952381,3.49547283 21.4775795,4.10869565 20.7142857,4.10869565 L15.1904762,4.10869565 L15.1904762,9.58695652 C15.1904762,11.097628 16.4298257,12.326087 17.952381,12.326087 L20.8383505,12.326087 C21.6016443,12.326087 22.2193029,12.9393098 22.2193029,13.6956522 C22.2193029,14.4519946 21.6016581,15.0652174 20.8383505,15.0652174 Z" id="Shape" fill="#D8BC48"></path>
                <path d="M40.047619,15.0652174 L37.1710814,15.0652174 C36.4077876,15.0652174 35.790129,14.4519946 35.790129,13.6956522 C35.790129,12.9393098 36.4077876,12.326087 37.1710814,12.326087 L40.047619,12.326087 C41.5701743,12.326087 42.8095238,11.097628 42.8095238,9.58695652 L42.8095238,4.10869565 L37.2857143,4.10869565 C36.5224205,4.10869565 35.9047619,3.49547283 35.9047619,2.73913043 C35.9047619,1.98278804 36.5224205,1.36956522 37.2857143,1.36956522 L44.1904762,1.36956522 C44.95377,1.36956522 45.5714286,1.98278804 45.5714286,2.73913043 L45.5714286,9.58695652 C45.5714286,12.6076285 43.094069,15.0652174 40.047619,15.0652174 Z" id="Shape" fill="#D8BC48"></path>
                <path d="M19.3333333,63 L1.38095238,63 C0.61828,63 0,62.3868183 0,61.6304348 L0,45.1956522 C0,44.4392687 0.61828,43.826087 1.38095238,43.826087 L19.3333333,43.826087 L19.3333333,63 Z" id="Shape" fill="#2574A9"></path>
                <path d="M56.6190476,63 L38.6666667,63 L38.6666667,49.3043478 L56.6190476,49.3043478 C57.38172,49.3043478 58,49.9175296 58,50.673913 L58,61.6304348 C58,62.3868183 57.38172,63 56.6190476,63 Z" id="Shape" fill="#2574A9"></path>
                <path d="M34.5238095,27.3913043 L30.3809524,27.3913043 L30.3809524,20.5434783 C30.3809524,19.7871359 29.7632938,19.173913 29,19.173913 C28.2367062,19.173913 27.6190476,19.7871359 27.6190476,20.5434783 L27.6190476,27.3913043 L23.4761905,27.3913043 C22.7128967,27.3913043 22.0952381,28.0045272 22.0952381,28.7608696 C22.0952381,29.517212 22.7128967,30.1304348 23.4761905,30.1304348 L34.5238095,30.1304348 C35.2871033,30.1304348 35.9047619,29.517212 35.9047619,28.7608696 C35.9047619,28.0045272 35.2871033,27.3913043 34.5238095,27.3913043 Z" id="Shape" fill="#D8BC48"></path>
                <path d="M38.6666667,63 L19.3333333,63 L19.3333333,36.9782609 C19.3333333,36.2218774 19.9516133,35.6086957 20.7142857,35.6086957 L37.2857143,35.6086957 C38.0483867,35.6086957 38.6666667,36.2218774 38.6666667,36.9782609 L38.6666667,63 Z" id="Shape" fill-opacity="0.5" fill="#2574A9"></path>
                <path d="M29,21.9130435 C23.67038,21.9130435 19.3333333,17.612417 19.3333333,12.326087 L19.3333333,1.36956522 C19.3333333,0.613222826 19.9509919,0 20.7142857,0 L37.2857143,0 C38.0490081,0 38.6666667,0.613222826 38.6666667,1.36956522 L38.6666667,12.326087 C38.6666667,17.612417 34.32962,21.9130435 29,21.9130435 Z" id="Shape" fill="#EFD358"></path>
            </g>
            <circle id="Oval-3" stroke="#2574A9" cx="48" cy="48" r="48"></circle>
            <circle id="Oval-3" stroke="#2574A9" cx="48" cy="48" r="46"></circle>
        </g>
    </g>
</svg>
