<?xml version="1.0" encoding="UTF-8"?>
<svg width="1440px" height="990px" viewBox="0 0 1440 990" version="1.1" xmlns="http://www.w3.org/2000/svg" xmlns:xlink="http://www.w3.org/1999/xlink">
    <!-- Generator: Sketch 46.2 (44496) - http://www.bohemiancoding.com/sketch -->
    <title>Lecturer/Home</title>
    <desc>Created with Sketch.</desc>
    <defs></defs>
    <g id="New" stroke="none" stroke-width="1" fill="none" fill-rule="evenodd">
        <g id="Lecturer/Home">
            <g id="main" transform="translate(-797.000000, -222.000000)">
                <g id="pattern" opacity="0.3">
                    <path d="M1404.24417,1143.96951 L1389.74095,1154.89847 L1400.33472,1168.95687 L1398.78257,1169.2734 C1397.29751,1169.57626 1395.77717,1169.73014 1394.23762,1169.73014 C1381.73942,1169.73014 1371.60762,1159.59835 1371.60762,1147.10014 C1371.60762,1134.60194 1381.73942,1124.47014 1394.23762,1124.47014 C1406.73583,1124.47014 1416.86762,1134.60194 1416.86762,1147.10014 C1416.86762,1150.1541 1416.26183,1153.12518 1415.10087,1155.88055 L1414.42628,1157.48161 L1404.24417,1143.96951 Z M1394.44762,1188.31014 C1417.0913,1188.31014 1435.44762,1169.95382 1435.44762,1147.31014 C1435.44762,1124.66647 1417.0913,1106.31014 1394.44762,1106.31014 C1371.80395,1106.31014 1353.44762,1124.66647 1353.44762,1147.31014 C1353.44762,1169.95382 1371.80395,1188.31014 1394.44762,1188.31014 Z" id="Combined-Shape-Copy-6" stroke="#5CABC9" stroke-width="2" opacity="0.86" transform="translate(1394.447623, 1147.310143) scale(1, -1) rotate(-24.000000) translate(-1394.447623, -1147.310143) "></path>
                    <path d="M1492.28507,1004.11121 L1477.78185,1015.04017 L1488.37562,1029.09857 L1486.82347,1029.41511 C1485.33841,1029.71797 1483.81807,1029.87185 1482.27852,1029.87185 C1469.78032,1029.87185 1459.64852,1019.74005 1459.64852,1007.24185 C1459.64852,994.743644 1469.78032,984.611848 1482.27852,984.611848 C1494.77673,984.611848 1504.90852,994.743644 1504.90852,1007.24185 C1504.90852,1010.29581 1504.30273,1013.26689 1503.14177,1016.02226 L1502.46718,1017.62332 L1492.28507,1004.11121 Z M1482.48852,1048.45185 C1505.1322,1048.45185 1523.48852,1030.09552 1523.48852,1007.45185 C1523.48852,984.808173 1505.1322,966.451848 1482.48852,966.451848 C1459.84485,966.451848 1441.48852,984.808173 1441.48852,1007.45185 C1441.48852,1030.09552 1459.84485,1048.45185 1482.48852,1048.45185 Z" id="Combined-Shape-Copy-6" stroke="#5CABC9" stroke-width="2" opacity="0.86" transform="translate(1482.488523, 1007.451848) scale(1, -1) rotate(-84.000000) translate(-1482.488523, -1007.451848) "></path>
                    <path d="M1245.96047,395.446795 L1229.54052,407.820112 L1241.3536,423.496598 L1239.80146,423.813134 C1238.14741,424.15045 1236.45405,424.321845 1234.73923,424.321845 C1220.81889,424.321845 1209.53423,413.037182 1209.53423,399.116845 C1209.53423,385.196508 1220.81889,373.911845 1234.73923,373.911845 C1248.65957,373.911845 1259.94423,385.196508 1259.94423,399.116845 C1259.94423,402.518425 1259.26952,405.827493 1257.97649,408.896317 L1257.30189,410.497377 L1245.96047,395.446795 Z M1234.97423,445.351845 C1260.37933,445.351845 1280.97423,424.756943 1280.97423,399.351845 C1280.97423,373.946746 1260.37933,353.351845 1234.97423,353.351845 C1209.56913,353.351845 1188.97423,373.946746 1188.97423,399.351845 C1188.97423,424.756943 1209.56913,445.351845 1234.97423,445.351845 Z" id="Combined-Shape-Copy-6" stroke="#5CABC9" stroke-width="2" opacity="0.71" transform="translate(1234.974228, 399.351845) scale(-1, -1) rotate(-166.000000) translate(-1234.974228, -399.351845) "></path>
                    <path d="M911.686063,555.586976 L900.441275,564.060531 L908.962203,575.368185 L907.410059,575.684721 C906.21225,575.928995 904.986053,576.053105 903.744479,576.053105 C893.663901,576.053105 885.491979,567.881183 885.491979,557.800605 C885.491979,547.720028 893.663901,539.548105 903.744479,539.548105 C913.825056,539.548105 921.996979,547.720028 921.996979,557.800605 C921.996979,560.263616 921.508341,562.66011 920.571906,564.882608 L919.89731,566.483669 L911.686063,555.586976 Z M903.911979,590.468105 C921.861233,590.468105 936.411979,575.91736 936.411979,557.968105 C936.411979,540.018851 921.861233,525.468105 903.911979,525.468105 C885.962724,525.468105 871.411979,540.018851 871.411979,557.968105 C871.411979,575.91736 885.962724,590.468105 903.911979,590.468105 Z" id="Combined-Shape-Copy-6" stroke="#5CABC9" stroke-width="2" opacity="0.81" transform="translate(903.911979, 557.968105) scale(-1, 1) rotate(-52.000000) translate(-903.911979, -557.968105) "></path>
                    <g id="mobile-camera" opacity="0.84" transform="translate(1770.761913, 769.755263) scale(1, -1) rotate(-46.000000) translate(-1770.761913, -769.755263) translate(1729.761913, 711.255263)" stroke="#5CABC9" stroke-width="2" stroke-linecap="square">
                        <path d="M37.0952381,11.7 L44.9047619,11.7" id="Shape"></path>
                        <path d="M0,23.4 L82,23.4" id="Shape"></path>
                        <path d="M0,85.8 L82,85.8" id="Shape"></path>
                        <path d="M74.1904762,117 L7.80952381,117 C3.49671429,117 0,113.50755 0,109.2 L0,7.8 C0,3.49245 3.49671429,0 7.80952381,0 L74.1904762,0 C78.5032857,0 82,3.49245 82,7.8 L82,109.2 C82,113.50755 78.5032857,117 74.1904762,117 Z" id="Shape"></path>
                    </g>
                    <g id="bulb-61" opacity="0.77" transform="translate(1620.214140, 692.140191) scale(-1, -1) rotate(-306.000000) translate(-1620.214140, -692.140191) translate(1586.714140, 646.140191)" stroke="#5CABC9" stroke-width="2" stroke-linecap="square">
                        <path d="M67,33.7333333 C67,15.1033333 52.0011364,0 33.5,0 C14.9988636,0 0,15.1033333 0,33.7333333 C0,46.8356667 7.43395455,58.1685333 18.2727273,63.7544667 L18.2727273,81.2666667 L48.7272727,81.2666667 L48.7272727,63.7544667 C59.5660455,58.1685333 67,46.8356667 67,33.7333333 Z" id="Shape"></path>
                        <path d="M15.2272727,42.9333333 C15.2272727,39.5462 17.9544773,36.8 21.3181818,36.8 C24.6818864,36.8 27.4090909,39.5462 27.4090909,42.9333333 C27.4090909,44.0511333 27.4090909,49.0666667 27.4090909,49.0666667 C27.4090909,49.0666667 23.5718182,49.0666667 21.3181818,49.0666667 C17.9544773,49.0666667 15.2272727,46.3204667 15.2272727,42.9333333 Z" id="Shape"></path>
                        <path d="M27.4090909,49.0666667 L27.4090909,72.0666667" id="Shape"></path>
                        <path d="M51.7727273,42.9333333 C51.7727273,39.5462 49.0455227,36.8 45.6818182,36.8 C42.3181136,36.8 39.5909091,39.5462 39.5909091,42.9333333 C39.5909091,44.0511333 39.5909091,49.0666667 39.5909091,49.0666667 C39.5909091,49.0666667 43.4281818,49.0666667 45.6818182,49.0666667 C49.0455227,49.0666667 51.7727273,46.3204667 51.7727273,42.9333333 Z" id="Shape"></path>
                        <path d="M39.5909091,49.0666667 L39.5909091,72.0666667" id="Shape"></path>
                        <path d="M27.4090909,49.0666667 L39.5909091,49.0666667" id="Shape"></path>
                        <path d="M18.2727273,90.4666667 L48.7272727,90.4666667" id="Shape"></path>
                    </g>
                    <g id="bulb-61" opacity="0.78" transform="translate(1511.884879, 1157.943486) scale(-1, 1) rotate(-60.000000) translate(-1511.884879, -1157.943486) translate(1476.384879, 1109.443486)" stroke="#5CABC9" stroke-width="2" stroke-linecap="square">
                        <path d="M71,35.5666667 C71,15.9241667 55.1056818,0 35.5,0 C15.8943182,0 0,15.9241667 0,35.5666667 C0,49.3810833 7.87777273,61.3298667 19.3636364,67.2193833 L19.3636364,85.6833333 L51.6363636,85.6833333 L51.6363636,67.2193833 C63.1222273,61.3298667 71,49.3810833 71,35.5666667 Z" id="Shape"></path>
                        <path d="M16.1363636,45.2666667 C16.1363636,41.69545 19.0263864,38.8 22.5909091,38.8 C26.1554318,38.8 29.0454545,41.69545 29.0454545,45.2666667 C29.0454545,46.4452167 29.0454545,51.7333333 29.0454545,51.7333333 C29.0454545,51.7333333 24.9790909,51.7333333 22.5909091,51.7333333 C19.0263864,51.7333333 16.1363636,48.8378833 16.1363636,45.2666667 Z" id="Shape"></path>
                        <path d="M29.0454545,51.7333333 L29.0454545,75.9833333" id="Shape"></path>
                        <path d="M54.8636364,45.2666667 C54.8636364,41.69545 51.9736136,38.8 48.4090909,38.8 C44.8445682,38.8 41.9545455,41.69545 41.9545455,45.2666667 C41.9545455,46.4452167 41.9545455,51.7333333 41.9545455,51.7333333 C41.9545455,51.7333333 46.0209091,51.7333333 48.4090909,51.7333333 C51.9736136,51.7333333 54.8636364,48.8378833 54.8636364,45.2666667 Z" id="Shape"></path>
                        <path d="M41.9545455,51.7333333 L41.9545455,75.9833333" id="Shape"></path>
                        <path d="M29.0454545,51.7333333 L41.9545455,51.7333333" id="Shape"></path>
                        <path d="M19.3636364,95.3833333 L51.6363636,95.3833333" id="Shape"></path>
                    </g>
                    <g id="bulb-61" opacity="0.86" transform="translate(1629.209807, 938.317148) scale(-1, -1) rotate(-65.000000) translate(-1629.209807, -938.317148) translate(1595.709807, 892.817148)" stroke="#5CABC9" stroke-width="2" stroke-linecap="square">
                        <path d="M67,33.3666667 C67,14.9391667 52.0011364,0 33.5,0 C14.9988636,0 0,14.9391667 0,33.3666667 C0,46.3265833 7.43395455,57.5362667 18.2727273,63.0614833 L18.2727273,80.3833333 L48.7272727,80.3833333 L48.7272727,63.0614833 C59.5660455,57.5362667 67,46.3265833 67,33.3666667 Z" id="Shape"></path>
                        <path d="M15.2272727,42.4666667 C15.2272727,39.11635 17.9544773,36.4 21.3181818,36.4 C24.6818864,36.4 27.4090909,39.11635 27.4090909,42.4666667 C27.4090909,43.5723167 27.4090909,48.5333333 27.4090909,48.5333333 C27.4090909,48.5333333 23.5718182,48.5333333 21.3181818,48.5333333 C17.9544773,48.5333333 15.2272727,45.8169833 15.2272727,42.4666667 Z" id="Shape"></path>
                        <path d="M27.4090909,48.5333333 L27.4090909,71.2833333" id="Shape"></path>
                        <path d="M51.7727273,42.4666667 C51.7727273,39.11635 49.0455227,36.4 45.6818182,36.4 C42.3181136,36.4 39.5909091,39.11635 39.5909091,42.4666667 C39.5909091,43.5723167 39.5909091,48.5333333 39.5909091,48.5333333 C39.5909091,48.5333333 43.4281818,48.5333333 45.6818182,48.5333333 C49.0455227,48.5333333 51.7727273,45.8169833 51.7727273,42.4666667 Z" id="Shape"></path>
                        <path d="M39.5909091,48.5333333 L39.5909091,71.2833333" id="Shape"></path>
                        <path d="M27.4090909,48.5333333 L39.5909091,48.5333333" id="Shape"></path>
                        <path d="M18.2727273,89.4833333 L48.7272727,89.4833333" id="Shape"></path>
                    </g>
                    <g id="bulb-61" opacity="0.74" transform="translate(1429.001399, 1253.698692) scale(-1, 1) rotate(-136.000000) translate(-1429.001399, -1253.698692) translate(1390.501399, 1200.698692)" stroke="#5CABC9" stroke-width="2" stroke-linecap="square">
                        <path d="M77,38.8666667 C77,17.4016667 59.7625,0 38.5,0 C17.2375,0 0,17.4016667 0,38.8666667 C0,53.9628333 8.5435,67.0202667 21,73.4562333 L21,93.6333333 L56,93.6333333 L56,73.4562333 C68.4565,67.0202667 77,53.9628333 77,38.8666667 Z" id="Shape"></path>
                        <path d="M21,104.233333 L56,104.233333" id="Shape"></path>
                    </g>
                    <g id="bulb-63" opacity="0.78" transform="translate(2012.460314, 391.318016) scale(1, -1) rotate(-242.000000) translate(-2012.460314, -391.318016) translate(1966.960314, 344.818016)" stroke="#5CABC9" stroke-width="2" stroke-linecap="square">
                        <path d="M0,45.7377049 L9.1,45.7377049" id="Shape"></path>
                        <path d="M13.65,13.7213115 L19.7166667,19.8196721" id="Shape"></path>
                        <path d="M45.5,0 L45.5,9.14754098" id="Shape"></path>
                        <path d="M77.35,13.7213115 L71.2833333,19.8196721" id="Shape"></path>
                        <path d="M91,45.7377049 L81.9,45.7377049" id="Shape"></path>
                        <path d="M34.8833333,91.4754098 L56.1166667,91.4754098" id="Shape"></path>
                        <path d="M71.2833333,45.7377049 C71.2833333,31.4233279 59.7399833,19.8196721 45.5,19.8196721 C31.2600167,19.8196721 19.7166667,31.4233279 19.7166667,45.7377049 C19.7166667,56.2436557 25.9456167,65.2677049 34.8833333,69.3383607 L34.8833333,82.3278689 L56.1166667,82.3278689 L56.1166667,69.3383607 C65.0543833,65.2677049 71.2833333,56.2436557 71.2833333,45.7377049 Z" id="Shape"></path>
                    </g>
                    <g id="bulb-63" opacity="0.74" transform="translate(1691.397377, 1238.684983) scale(-1, -1) rotate(-159.000000) translate(-1691.397377, -1238.684983) translate(1656.397377, 1203.184983)" stroke="#5CABC9" stroke-width="2" stroke-linecap="square">
                        <path d="M10.5,10.4754098 L15.1666667,15.1311475" id="Shape"></path>
                        <path d="M35,0 L35,6.98360656" id="Shape"></path>
                    </g>
                    <g id="bulb-63" opacity="0.92" transform="translate(837.282589, 1117.270248) scale(-1, -1) rotate(-46.000000) translate(-837.282589, -1117.270248) translate(792.782589, 1072.270248)" stroke="#5CABC9" stroke-width="2" stroke-linecap="square">
                        <path d="M0,44.2622951 L8.9,44.2622951" id="Shape"></path>
                        <path d="M13.35,13.2786885 L19.2833333,19.1803279" id="Shape"></path>
                        <path d="M44.5,0 L44.5,8.85245902" id="Shape"></path>
                        <path d="M75.65,13.2786885 L69.7166667,19.1803279" id="Shape"></path>
                        <path d="M89,44.2622951 L80.1,44.2622951" id="Shape"></path>
                        <path d="M34.1166667,88.5245902 L54.8833333,88.5245902" id="Shape"></path>
                        <path d="M69.7166667,44.2622951 C69.7166667,30.4096721 58.4270167,19.1803279 44.5,19.1803279 C30.5729833,19.1803279 19.2833333,30.4096721 19.2833333,44.2622951 C19.2833333,54.4293443 25.3753833,63.1622951 34.1166667,67.1016393 L34.1166667,79.6721311 L54.8833333,79.6721311 L54.8833333,67.1016393 C63.6246167,63.1622951 69.7166667,54.4293443 69.7166667,44.2622951 Z" id="Shape"></path>
                    </g>
                    <g id="book" opacity="0.74" transform="translate(2189.301220, 973.130651) rotate(-167.000000) translate(-2189.301220, -973.130651) translate(2150.801220, 947.130651)" stroke="#5CABC9" stroke-width="2">
                        <path d="M38.5,5.77777778 L38.5,50.0740741" id="Shape"></path>
                        <path d="M57.75,0 C47.0983333,0 38.5,2.98518519 38.5,7.31851852 C38.5,2.98518519 29.9016667,0 19.25,0 C8.59833333,0 0,2.98518519 0,7.31851852 L0,52 C0,47.6666667 8.59833333,44.2962963 19.25,44.2962963 C29.9016667,44.2962963 38.5,47.6666667 38.5,52 C38.5,47.6666667 47.0983333,44.2962963 57.75,44.2962963 C68.4016667,44.2962963 77,47.6666667 77,52 L77,7.31851852 C77,2.98518519 68.4016667,0 57.75,0 Z" id="Shape" stroke-linecap="square"></path>
                    </g>
                    <g id="book" opacity="0.76" transform="translate(1951.746328, 506.077378) rotate(-186.000000) translate(-1951.746328, -506.077378) translate(1921.746328, 486.077378)" stroke="#5CABC9" stroke-width="2">
                        <path d="M30,4.44444444 L30,38.5185185" id="Shape"></path>
                        <path d="M45,0 C36.7,0 30,2.2962963 30,5.62962963 C30,2.2962963 23.3,0 15,0 C6.7,0 0,2.2962963 0,5.62962963 L0,40 C0,36.6666667 6.7,34.0740741 15,34.0740741 C23.3,34.0740741 30,36.6666667 30,40 C30,36.6666667 36.7,34.0740741 45,34.0740741 C53.3,34.0740741 60,36.6666667 60,40 L60,5.62962963 C60,2.2962963 53.3,0 45,0 Z" id="Shape" stroke-linecap="square"></path>
                    </g>
                    <g id="book" opacity="0.88" transform="translate(1762.536717, 441.069347) scale(1, -1) rotate(-358.000000) translate(-1762.536717, -441.069347) translate(1717.036717, 410.569347)" stroke="#5CABC9" stroke-width="2">
                        <path d="M45.5,6.77777778 L45.5,58.7407407" id="Shape"></path>
                        <path d="M68.25,0 C55.6616667,0 45.5,3.50185185 45.5,8.58518519 C45.5,3.50185185 35.3383333,0 22.75,0 C10.1616667,0 0,3.50185185 0,8.58518519 L0,61 C0,55.9166667 10.1616667,51.962963 22.75,51.962963 C35.3383333,51.962963 45.5,55.9166667 45.5,61 C45.5,55.9166667 55.6616667,51.962963 68.25,51.962963 C80.8383333,51.962963 91,55.9166667 91,61 L91,8.58518519 C91,3.50185185 80.8383333,0 68.25,0 Z" id="Shape" stroke-linecap="square"></path>
                    </g>
                    <g id="book" opacity="0.87" transform="translate(1908.294213, 274.602071) rotate(-151.000000) translate(-1908.294213, -274.602071) translate(1877.294213, 253.602071)" stroke="#5CABC9" stroke-width="2">
                        <path d="M31,4.66666667 L31,40.4444444" id="Shape"></path>
                        <path d="M46.5,0 C37.9233333,0 31,2.41111111 31,5.91111111 C31,2.41111111 24.0766667,0 15.5,0 C6.92333333,0 0,2.41111111 0,5.91111111 L0,42 C0,38.5 6.92333333,35.7777778 15.5,35.7777778 C24.0766667,35.7777778 31,38.5 31,42 C31,38.5 37.9233333,35.7777778 46.5,35.7777778 C55.0766667,35.7777778 62,38.5 62,42 L62,5.91111111 C62,2.41111111 55.0766667,0 46.5,0 Z" id="Shape" stroke-linecap="square"></path>
                    </g>
                    <g id="book-open" opacity="0.7" transform="translate(969.944987, 1171.161565) scale(-1, 1) rotate(-356.000000) translate(-969.944987, -1171.161565) translate(937.944987, 1142.161565)" stroke="#5CABC9" stroke-width="2">
                        <path d="M32,7.51851852 L32,36.5185185" id="Shape"></path>
                        <polyline id="Shape" stroke-linecap="square" points="57.6 6.44444444 64 6.44444444 64 58 0 58 0 6.44444444 6.4 6.44444444"></polyline>
                        <path d="M32,7.51851852 C24.8,2.059 15.2885333,0 6.4,0 C6.4,5.191 6.4,44.037037 6.4,44.037037 C15.2885333,44.037037 24.8,46.096037 32,51.5555556 C39.2,46.096037 48.7114667,44.037037 57.6,44.037037 C57.6,44.037037 57.6,5.191 57.6,0 C48.7114667,0 39.2,2.059 32,7.51851852 Z" id="Shape" stroke-linecap="square"></path>
                    </g>
                    <g id="book-open" opacity="0.78" transform="translate(863.940317, 695.455272) scale(-1, -1) rotate(-243.000000) translate(-863.940317, -695.455272) translate(816.440317, 652.455272)" stroke="#5CABC9" stroke-width="2">
                        <path d="M47.5,11.1481481 L47.5,54.1481481" id="Shape"></path>
                        <polyline id="Shape" stroke-linecap="square" points="85.5 9.55555556 95 9.55555556 95 86 0 86 0 9.55555556 9.5 9.55555556"></polyline>
                        <path d="M47.5,11.1481481 C36.8125,3.053 22.6939167,0 9.5,0 C9.5,7.697 9.5,65.2962963 9.5,65.2962963 C22.6939167,65.2962963 36.8125,68.3492963 47.5,76.4444444 C58.1875,68.3492963 72.3060833,65.2962963 85.5,65.2962963 C85.5,65.2962963 85.5,7.697 85.5,0 C72.3060833,0 58.1875,3.053 47.5,11.1481481 Z" id="Shape" stroke-linecap="square"></path>
                    </g>
                    <g id="book-open-2" opacity="0.74" transform="translate(1978.483188, 598.998107) scale(-1, -1) rotate(-228.000000) translate(-1978.483188, -598.998107) translate(1948.483188, 570.998107)" stroke="#5CABC9" stroke-width="2" stroke-linecap="square">
                        <path d="M24,19.3 L8,14" id="Shape"></path>
                        <path d="M24,30.7 L8,25.3" id="Shape"></path>
                        <path d="M8,38 L24,43.3" id="Shape"></path>
                        <path d="M36,19.3 L52,14" id="Shape"></path>
                        <path d="M36,30.7 L52,25.3" id="Shape"></path>
                        <path d="M52,38 L36,43.3" id="Shape"></path>
                        <polygon id="Shape" points="0 0 30 10 60 0 60 46 30 56 0 46"></polygon>
                    </g>
                    <g id="book-open-2" opacity="0.85" transform="translate(990.495616, 769.755263) rotate(-347.000000) translate(-990.495616, -769.755263) translate(946.995616, 729.255263)" stroke="#5CABC9" stroke-width="2" stroke-linecap="square">
                        <path d="M34.8,27.9160714 L11.6,20.25" id="Shape"></path>
                        <path d="M34.8,44.4053571 L11.6,36.5946429" id="Shape"></path>
                        <path d="M11.6,54.9642857 L34.8,62.6303571" id="Shape"></path>
                        <path d="M52.2,27.9160714 L75.4,20.25" id="Shape"></path>
                        <path d="M52.2,44.4053571 L75.4,36.5946429" id="Shape"></path>
                        <path d="M75.4,54.9642857 L52.2,62.6303571" id="Shape"></path>
                        <polygon id="Shape" points="0 0 43.5 14.4642857 87 0 87 66.5357143 43.5 81 0 66.5357143"></polygon>
                    </g>
                    <g id="planet" opacity="0.97" transform="translate(1130.158662, 835.841338) scale(1, -1) rotate(-65.000000) translate(-1130.158662, -835.841338) translate(1094.158662, 799.841338)">
                        <circle id="Oval" stroke="#5CABC9" stroke-width="2" stroke-linecap="square" cx="34.8" cy="37.2" r="33.6"></circle>
                        <circle id="Oval" stroke="#5CABC9" stroke-width="2" stroke-linecap="square" cx="15.6" cy="50.4" r="2.4"></circle>
                        <circle id="Oval" stroke="#5CABC9" stroke-width="2" stroke-linecap="square" cx="49.2" cy="40.8" r="2.4"></circle>
                        <circle id="Oval" fill="#5CABC9" fill-rule="nonzero" cx="15.6" cy="50.4" r="2.4"></circle>
                        <circle id="Oval" fill="#5CABC9" fill-rule="nonzero" cx="49.2" cy="40.8" r="2.4"></circle>
                        <circle id="Oval" stroke="#5CABC9" stroke-width="2" stroke-linecap="square" cx="36.6" cy="22.2" r="6.6"></circle>
                        <path d="M69.6,57.6 C72.3132,63.6432 72.8388,68.3496 70.5936,70.5936 C65.1132,76.074 45.1968,65.0496 26.04,45.9552 L26.0436,45.9588 C6.9504,26.802 -4.074,6.8856 1.4064,1.4064 C3.6492,-0.8376 8.3604,-0.3108 14.4,2.4" id="Shape" stroke="#5CABC9" stroke-width="2" stroke-linecap="square"></path>
                    </g>
                    <g id="planet" opacity="0.97" transform="translate(1807.603251, 594.809443) scale(1, -1) rotate(-65.000000) translate(-1807.603251, -594.809443) translate(1771.603251, 558.809443)">
                        <circle id="Oval" stroke="#5CABC9" stroke-width="2" stroke-linecap="square" cx="34.8" cy="37.2" r="33.6"></circle>
                        <circle id="Oval" stroke="#5CABC9" stroke-width="2" stroke-linecap="square" cx="15.6" cy="50.4" r="2.4"></circle>
                        <circle id="Oval" stroke="#5CABC9" stroke-width="2" stroke-linecap="square" cx="49.2" cy="40.8" r="2.4"></circle>
                        <circle id="Oval" fill="#5CABC9" fill-rule="nonzero" cx="15.6" cy="50.4" r="2.4"></circle>
                        <circle id="Oval" fill="#5CABC9" fill-rule="nonzero" cx="49.2" cy="40.8" r="2.4"></circle>
                        <circle id="Oval" stroke="#5CABC9" stroke-width="2" stroke-linecap="square" cx="36.6" cy="22.2" r="6.6"></circle>
                        <path d="M69.6,57.6 C72.3132,63.6432 72.8388,68.3496 70.5936,70.5936 C65.1132,76.074 45.1968,65.0496 26.04,45.9552 L26.0436,45.9588 C6.9504,26.802 -4.074,6.8856 1.4064,1.4064 C3.6492,-0.8376 8.3604,-0.3108 14.4,2.4" id="Shape" stroke="#5CABC9" stroke-width="2" stroke-linecap="square"></path>
                    </g>
                    <g id="planet" opacity="0.73" transform="translate(901.273236, 929.332919) scale(1, -1) rotate(-187.000000) translate(-901.273236, -929.332919) translate(867.773236, 895.832919)">
                        <circle id="Oval" stroke="#5CABC9" stroke-width="2" stroke-linecap="square" cx="32.3833333" cy="34.6166667" r="31.2666667"></circle>
                        <circle id="Oval" stroke="#5CABC9" stroke-width="2" stroke-linecap="square" cx="14.5166667" cy="46.9" r="2.23333333"></circle>
                        <circle id="Oval" stroke="#5CABC9" stroke-width="2" stroke-linecap="square" cx="45.7833333" cy="37.9666667" r="2.23333333"></circle>
                        <circle id="Oval" fill="#5CABC9" fill-rule="nonzero" cx="14.5166667" cy="46.9" r="2.23333333"></circle>
                        <circle id="Oval" fill="#5CABC9" fill-rule="nonzero" cx="45.7833333" cy="37.9666667" r="2.23333333"></circle>
                        <circle id="Oval" stroke="#5CABC9" stroke-width="2" stroke-linecap="square" cx="34.0583333" cy="20.6583333" r="6.14166667"></circle>
                        <path d="M64.7666667,53.6 C67.29145,59.2235333 67.78055,63.6031 65.6912667,65.6912667 C60.59145,70.7910833 42.0581333,60.5322667 24.2316667,42.7638667 L24.2350167,42.7672167 C6.46773333,24.94075 -3.79108333,6.40743333 1.30873333,1.30873333 C3.39578333,-0.779433333 7.77981667,-0.289216667 13.4,2.23333333" id="Shape" stroke="#5CABC9" stroke-width="2" stroke-linecap="square"></path>
                    </g>
                    <g id="Group-5" transform="translate(0.000000, 728.000000)" stroke="#5CABC9" stroke-width="2">
                        <g id="bulb-63" opacity="0.74" transform="translate(871.776905, 277.393250) scale(-1, -1) rotate(-159.000000) translate(-871.776905, -277.393250) translate(836.776905, 241.893250)" stroke-linecap="square">
                            <path d="M0,34.9180328 L7,34.9180328" id="Shape"></path>
                            <path d="M10.5,10.4754098 L15.1666667,15.1311475" id="Shape"></path>
                            <path d="M35,0 L35,6.98360656" id="Shape"></path>
                            <path d="M59.5,10.4754098 L54.8333333,15.1311475" id="Shape"></path>
                            <path d="M70,34.9180328 L63,34.9180328" id="Shape"></path>
                            <path d="M26.8333333,69.8360656 L43.1666667,69.8360656" id="Shape"></path>
                            <path d="M54.8333333,34.9180328 C54.8333333,23.9898525 45.9538333,15.1311475 35,15.1311475 C24.0461667,15.1311475 15.1666667,23.9898525 15.1666667,34.9180328 C15.1666667,42.9387049 19.9581667,49.8280328 26.8333333,52.9357377 L26.8333333,62.852459 L43.1666667,62.852459 L43.1666667,52.9357377 C50.0418333,49.8280328 54.8333333,42.9387049 54.8333333,34.9180328 Z" id="Shape"></path>
                        </g>
                        <g id="book-open" opacity="0.96" transform="translate(1315.937108, 336.727665) scale(-1, 1) rotate(-17.000000) translate(-1315.937108, -336.727665) translate(1276.437108, 301.227665)">
                            <path d="M39.5,9.2037037 L39.5,44.7037037" id="Shape"></path>
                            <polyline id="Shape" stroke-linecap="square" points="71.1 7.88888889 79 7.88888889 79 71 0 71 0 7.88888889 7.9 7.88888889"></polyline>
                            <path d="M39.5,9.2037037 C30.6125,2.5205 18.8717833,0 7.9,0 C7.9,6.3545 7.9,53.9074074 7.9,53.9074074 C18.8717833,53.9074074 30.6125,56.4279074 39.5,63.1111111 C48.3875,56.4279074 60.1282167,53.9074074 71.1,53.9074074 C71.1,53.9074074 71.1,6.3545 71.1,0 C60.1282167,0 48.3875,2.5205 39.5,9.2037037 Z" id="Shape" stroke-linecap="square"></path>
                        </g>
                        <g id="book-bookmark-2" opacity="0.92" transform="translate(874.402979, 97.871762) scale(-1, 1) rotate(-72.000000) translate(-874.402979, -97.871762) translate(844.902979, 62.871762)">
                            <polyline id="Shape" points="48.8334241 0 48.8334241 24.4651579 39.5318195 18.6401203 30.2302149 24.4651579 30.2302149 0"></polyline>
                            <path d="M58.1350287,62.910406 L9.30160459,62.910406" id="Shape" stroke-linecap="square"></path>
                            <path d="M58.1350287,55.9203609 L58.1350287,0 L6.97620344,0 C3.12301374,0 0,3.1292102 0,6.99004512 L0,62.910406" id="Shape"></path>
                            <path d="M58.1350287,69.9004512 L58.1350287,55.9203609 L6.97620344,55.9203609 C3.12301374,55.9203609 0,59.0495711 0,62.910406 L0,62.910406 C0,66.771241 3.12301374,69.9004512 6.97620344,69.9004512 L58.1350287,69.9004512 Z" id="Shape" stroke-linecap="square"></path>
                            <path d="M9.30160459,55.9203609 L9.30160459,9.32006015" id="Shape" stroke-linecap="square"></path>
                        </g>
                        <g id="award-48" opacity="0.97" transform="translate(1203.746044, 180.633899) scale(-1, -1) rotate(-139.000000) translate(-1203.746044, -180.633899) translate(1162.746044, 130.633899)">
                            <polyline id="Shape" points="14.8146667 56.6362069 0 87.9310345 15.375 86.2068966 23.9166667 100 38.247875 68.8551724"></polyline>
                            <polyline id="Shape" points="67.1853333 56.6362069 82 87.9310345 66.625 86.2068966 58.0833333 100 43.752125 68.8551724"></polyline>
                            <ellipse id="Oval" stroke-linecap="square" cx="41" cy="34.4827586" rx="34.1666667" ry="34.4827586"></ellipse>
                            <polygon id="Shape" stroke-linecap="square" points="23.9166667 30.4396552 35.7332083 28.8 41.0939583 18.0448276 46.2924167 28.8810345 58.0833333 30.7017241 49.4784583 39.0396552 51.4054583 50.9206897 40.8889583 45.237931 30.28875 50.7586207 32.395125 38.9086207"></polygon>
                        </g>
                        <g id="laptop" opacity="0.91" transform="translate(1011.800776, 170.800776) scale(-1, 1) rotate(-315.000000) translate(-1011.800776, -170.800776) translate(964.800776, 140.300776)" stroke-linecap="square">
                            <path d="M84.6,42.2307692 L84.6,4.69230769 C84.6,2.10098077 81.7941,0 78.3333333,0 L15.6666667,0 C12.2059,0 9.4,2.10098077 9.4,4.69230769 L9.4,42.2307692" id="Shape"></path>
                            <rect id="Rectangle-path" x="20.3666667" y="8.21153846" width="53.2666667" height="25.8076923"></rect>
                            <path d="M84.6,42.2307692 L9.4,42.2307692 L1.58703333,57.8303462 C0.819366667,59.3635577 2.33433333,61 4.5214,61 L89.4786,61 C91.6656667,61 93.1806333,59.3635577 92.4129667,57.8303462 L84.6,42.2307692 Z" id="Shape"></path>
                        </g>
                        <g id="laptop" opacity="0.89" transform="translate(794.562984, 208.888780) scale(1, -1) rotate(-208.000000) translate(-794.562984, -208.888780) translate(763.062984, 188.388780)" stroke-linecap="square">
                            <path d="M56.7,28.3846154 L56.7,3.15384615 C56.7,1.41213462 54.81945,0 52.5,0 L10.5,0 C8.18055,0 6.3,1.41213462 6.3,3.15384615 L6.3,28.3846154" id="Shape"></path>
                            <rect id="Rectangle-path" x="13.65" y="5.51923077" width="35.7" height="17.3461538"></rect>
                            <path d="M56.7,28.3846154 L6.3,28.3846154 L1.06365,38.8695769 C0.54915,39.9000962 1.5645,41 3.0303,41 L59.9697,41 C61.4355,41 62.45085,39.9000962 61.93635,38.8695769 L56.7,28.3846154 Z" id="Shape"></path>
                        </g>
                        <g id="tv-2" opacity="0.7" transform="translate(1089.250393, 276.124339) scale(1, -1) rotate(-76.000000) translate(-1089.250393, -276.124339) translate(1051.750393, 241.124339)" stroke-linecap="square">
                            <path d="M15,70 C15,70 26.71875,67.5 37.5,67.5 C48.28125,67.5 60,70 60,70" id="Shape"></path>
                            <path d="M37.5,57.5 L37.5,67.5" id="Shape"></path>
                            <rect id="Rectangle-path" x="0" y="0" width="75" height="57.5"></rect>
                            <path d="M0,46.25 L75,46.25" id="Shape"></path>
                        </g>
                        <g id="Group" transform="translate(1411.087934, 154.219960) rotate(-15.000000) translate(-1411.087934, -154.219960) translate(1347.587934, 118.219960)">
                            <path d="M63.5814284,1.04357194 L4.15877411,18.7752755 L63.5814284,36.506979 L123.004083,18.7752755 L63.5814284,1.04357194 Z" id="Rectangle-3"></path>
                            <path d="M62.3110241,68.2739764 L62.3110241,42.1128554 L31.4830857,31.8368758 L31.4830857,51.7363878 L62.3110241,68.2739764 Z" id="Rectangle-5"></path>
                            <path d="M64.0966713,68.4226012 L95.1389625,51.7700236 L95.1389625,31.8705115 L63.3074382,42.4810198 L60.1976122,41.4208746 L64.0966713,68.4226012 Z" id="Rectangle-5"></path>
                            <polyline id="Path-3" points="17.1316338 23.4654708 17.1316338 49.7471049 19.8929093 49.7471049 19.8929093 23.7251743"></polyline>
                            <circle id="Oval-3" cx="18.3680132" cy="53.5408043" r="3.51727911"></circle>
                            <path d="M18.2295031,71.0724458 C14.5925489,70.5046459 12.5658216,69.3781283 12.149321,67.6928929 C11.7328204,66.0076576 12.7648828,61.9166838 15.2455082,56.1245688 L15.5696336,55.8887598 M21.1197068,56.1245688 C23.6003322,61.9166838 24.809128,66.0076576 24.3926274,67.6928929 C23.9761268,69.3781283 21.4921866,70.5046459 17.8552325,71.0724458" id="Combined-Shape"></path>
                        </g>
                    </g>
                    <g id="ruler-pencil" opacity="0.99" transform="translate(1284.088228, 792.940162) rotate(-47.000000) translate(-1284.088228, -792.940162) translate(1239.588228, 745.440162)" stroke="#5CABC9" stroke-width="2">
                        <path d="M73.1071429,15.8333333 L73.1071429,72.8333333" id="Shape" stroke-linecap="square"></path>
                        <path d="M57.2142857,15.8333333 L89,15.8333333" id="Shape" stroke-linecap="square"></path>
                        <path d="M57.2142857,72.8333333 L89,72.8333333" id="Shape"></path>
                        <polygon id="Shape" stroke-linecap="square" points="89 72.8333333 73.1071429 91.8333333 57.2142857 72.8333333 57.2142857 0 89 0"></polygon>
                        <path d="M0,44.3333333 L14.3035714,44.3333333" id="Shape"></path>
                        <path d="M0,57 L11.125,57" id="Shape"></path>
                        <path d="M0,82.3333333 L11.125,82.3333333" id="Shape"></path>
                        <path d="M0,19 L14.3035714,19" id="Shape"></path>
                        <path d="M0,31.6666667 L11.125,31.6666667" id="Shape"></path>
                        <path d="M0,69.6666667 L14.3035714,69.6666667" id="Shape"></path>
                        <ellipse id="Oval" stroke-linecap="square" cx="25.4285714" cy="12.6666667" rx="3.17857143" ry="3.16666667"></ellipse>
                        <rect id="Rectangle-path" stroke-linecap="square" x="0" y="0" width="38.1428571" height="95"></rect>
                    </g>
                    <g id="ruler-pencil" opacity="0.99" transform="translate(1528.500000, 292.500000) rotate(-150.000000) translate(-1528.500000, -292.500000) translate(1498.000000, 260.000000)" stroke="#5CABC9" stroke-width="2">
                        <path d="M49.882705,10.8034518 L49.882705,49.6958784" id="Shape" stroke-linecap="square"></path>
                        <path d="M39.0386387,10.8034518 L60.7267713,10.8034518" id="Shape" stroke-linecap="square"></path>
                        <path d="M39.0386387,49.6958784 L60.7267713,49.6958784" id="Shape"></path>
                        <polygon id="Shape" stroke-linecap="square" points="60.7267713 49.6958784 49.882705 62.6600206 39.0386387 49.6958784 39.0386387 0 60.7267713 0"></polygon>
                        <path d="M0,30.2496651 L9.75965968,30.2496651" id="Shape"></path>
                        <path d="M0,38.8924266 L7.59084642,38.8924266" id="Shape"></path>
                        <path d="M0,56.1779495 L7.59084642,56.1779495" id="Shape"></path>
                        <path d="M0,12.9641422 L9.75965968,12.9641422" id="Shape"></path>
                        <path d="M0,21.6069037 L7.59084642,21.6069037" id="Shape"></path>
                        <path d="M0,47.5351881 L9.75965968,47.5351881" id="Shape"></path>
                        <ellipse id="Oval" stroke-linecap="square" cx="17.3505061" cy="8.64276146" rx="2.16881326" ry="2.16069037"></ellipse>
                        <rect id="Rectangle-path" stroke-linecap="square" x="0" y="0" width="26.0257591" height="64.820711"></rect>
                    </g>
                    <g id="book-bookmark-2" opacity="0.92" transform="translate(1780.007068, 1131.549732) scale(-1, 1) rotate(-72.000000) translate(-1780.007068, -1131.549732) translate(1738.007068, 1081.049732)" stroke-width="2" stroke="#5CABC9">
                        <polyline id="Shape" points="70.56 0 70.56 35.35 57.12 26.9333333 43.68 35.35 43.68 0"></polyline>
                        <path d="M84,90.9 L13.44,90.9" id="Shape" stroke-linecap="square"></path>
                        <path d="M84,80.8 L84,0 L10.08,0 C4.51248,0 0,4.52143333 0,10.1 L0,90.9" id="Shape"></path>
                        <path d="M84,101 L84,80.8 L10.08,80.8 C4.51248,80.8 0,85.3214333 0,90.9 L0,90.9 C0,96.4785667 4.51248,101 10.08,101 L84,101 Z" id="Shape" stroke-linecap="square"></path>
                        <path d="M13.44,80.8 L13.44,13.4666667" id="Shape" stroke-linecap="square"></path>
                    </g>
                    <g id="book-bookmark-2" opacity="0.93" transform="translate(1310.195897, 959.444458) scale(-1, 1) rotate(-88.000000) translate(-1310.195897, -959.444458) translate(1275.195897, 917.444458)" stroke-width="2" stroke="#5CABC9">
                        <polyline id="Shape" points="58.8 0 58.8 29.4 47.6 22.4 36.4 29.4 36.4 0"></polyline>
                        <path d="M70,75.6 L11.2,75.6" id="Shape" stroke-linecap="square"></path>
                        <path d="M70,67.2 L70,0 L8.4,0 C3.7604,0 0,3.7604 0,8.4 L0,75.6" id="Shape"></path>
                        <path d="M70,84 L70,67.2 L8.4,67.2 C3.7604,67.2 0,70.9604 0,75.6 L0,75.6 C0,80.2396 3.7604,84 8.4,84 L70,84 Z" id="Shape" stroke-linecap="square"></path>
                        <path d="M11.2,67.2 L11.2,11.2" id="Shape" stroke-linecap="square"></path>
                    </g>
                    <g id="book-bookmark-2" opacity="0.93" transform="translate(1402.849678, 385.281952) rotate(-85.000000) translate(-1402.849678, -385.281952) translate(1363.849678, 338.781952)" stroke-width="2" stroke="#5CABC9">
                        <polyline id="Shape" points="65.52 0 65.52 32.55 53.04 24.8 40.56 32.55 40.56 0"></polyline>
                        <path d="M78,83.7 L12.48,83.7" id="Shape" stroke-linecap="square"></path>
                        <path d="M78,74.4 L78,0 L9.36,0 C4.19016,0 0,4.1633 0,9.3 L0,83.7" id="Shape"></path>
                        <path d="M78,93 L78,74.4 L9.36,74.4 C4.19016,74.4 0,78.5633 0,83.7 L0,83.7 C0,88.8367 4.19016,93 9.36,93 L78,93 Z" id="Shape" stroke-linecap="square"></path>
                        <path d="M12.48,74.4 L12.48,12.4" id="Shape" stroke-linecap="square"></path>
                    </g>
                    <g id="backpack-58" opacity="0.72" transform="translate(1948.413009, 769.755263) rotate(-213.000000) translate(-1948.413009, -769.755263) translate(1903.913009, 727.755263)" stroke="#5CABC9" stroke-width="2">
                        <polyline id="Shape" stroke-linecap="square" points="29.6666667 11.7894737 29.6666667 0 59.3333333 0 59.3333333 11.7894737"></polyline>
                        <polyline id="Shape" points="81.5833333 61.8947368 81.5833333 84 7.41666667 84 7.41666667 61.8947368"></polyline>
                        <path d="M81.5833333,61.8947368 L7.41666667,61.8947368 C3.32118333,61.8947368 0,58.5951579 0,54.5263158 L0,11.7894737 L89,11.7894737 L89,54.5263158 C89,58.5951579 85.6788167,61.8947368 81.5833333,61.8947368 Z" id="Shape" stroke-linecap="square"></path>
                        <rect id="Rectangle-path" stroke-linecap="square" x="29.6666667" y="23.5789474" width="29.6666667" height="14.7368421"></rect>
                        <path d="M17.8,50.1052632 L29.6666667,50.1052632" id="Shape" stroke-linecap="square"></path>
                        <path d="M23.7333333,50.1052632 L23.7333333,73.6842105" id="Shape" stroke-linecap="square"></path>
                        <path d="M59.3333333,50.1052632 L71.2,50.1052632" id="Shape" stroke-linecap="square"></path>
                        <path d="M65.2666667,50.1052632 L65.2666667,73.6842105" id="Shape" stroke-linecap="square"></path>
                    </g>
                    <g id="backpack-58" opacity="0.76" transform="translate(1638.853997, 541.668007) scale(1, -1) rotate(-72.000000) translate(-1638.853997, -541.668007) translate(1607.353997, 511.668007)" stroke="#5CABC9" stroke-width="2">
                        <polyline id="Shape" stroke-linecap="square" points="21 8.42105263 21 0 42 0 42 8.42105263"></polyline>
                        <polyline id="Shape" points="57.75 44.2105263 57.75 60 5.25 60 5.25 44.2105263"></polyline>
                        <path d="M57.75,44.2105263 L5.25,44.2105263 C2.35095,44.2105263 0,41.8536842 0,38.9473684 L0,8.42105263 L63,8.42105263 L63,38.9473684 C63,41.8536842 60.64905,44.2105263 57.75,44.2105263 Z" id="Shape" stroke-linecap="square"></path>
                        <rect id="Rectangle-path" stroke-linecap="square" x="21" y="16.8421053" width="21" height="10.5263158"></rect>
                        <path d="M12.6,35.7894737 L21,35.7894737" id="Shape" stroke-linecap="square"></path>
                        <path d="M16.8,35.7894737 L16.8,52.6315789" id="Shape" stroke-linecap="square"></path>
                        <path d="M42,35.7894737 L50.4,35.7894737" id="Shape" stroke-linecap="square"></path>
                        <path d="M46.2,35.7894737 L46.2,52.6315789" id="Shape" stroke-linecap="square"></path>
                    </g>
                    <g id="backpack-58" opacity="0.97" transform="translate(1094.089885, 357.795918) rotate(-264.000000) translate(-1094.089885, -357.795918) translate(1048.589885, 314.295918)" stroke="#5CABC9" stroke-width="2">
                        <polyline id="Shape" stroke-linecap="square" points="30.3333333 12.2105263 30.3333333 0 60.6666667 0 60.6666667 12.2105263"></polyline>
                        <polyline id="Shape" points="83.4166667 64.1052632 83.4166667 87 7.58333333 87 7.58333333 64.1052632"></polyline>
                        <path d="M83.4166667,64.1052632 L7.58333333,64.1052632 C3.39581667,64.1052632 0,60.6878421 0,56.4736842 L0,12.2105263 L91,12.2105263 L91,56.4736842 C91,60.6878421 87.6041833,64.1052632 83.4166667,64.1052632 Z" id="Shape" stroke-linecap="square"></path>
                        <rect id="Rectangle-path" stroke-linecap="square" x="30.3333333" y="24.4210526" width="30.3333333" height="15.2631579"></rect>
                        <path d="M18.2,51.8947368 L30.3333333,51.8947368" id="Shape" stroke-linecap="square"></path>
                        <path d="M24.2666667,51.8947368 L24.2666667,76.3157895" id="Shape" stroke-linecap="square"></path>
                        <path d="M60.6666667,51.8947368 L72.8,51.8947368" id="Shape" stroke-linecap="square"></path>
                        <path d="M66.7333333,51.8947368 L66.7333333,76.3157895" id="Shape" stroke-linecap="square"></path>
                    </g>
                    <g id="backpack-58" opacity="0.93" transform="translate(850.604330, 396.528068) rotate(-61.000000) translate(-850.604330, -396.528068) translate(810.104330, 358.028068)" stroke="#5CABC9" stroke-width="2">
                        <polyline id="Shape" stroke-linecap="square" points="27 10.8070175 27 0 54 0 54 10.8070175"></polyline>
                        <polyline id="Shape" points="74.25 56.7368421 74.25 77 6.75 77 6.75 56.7368421"></polyline>
                        <path d="M74.25,56.7368421 L6.75,56.7368421 C3.02265,56.7368421 0,53.7122281 0,49.9824561 L0,10.8070175 L81,10.8070175 L81,49.9824561 C81,53.7122281 77.97735,56.7368421 74.25,56.7368421 Z" id="Shape" stroke-linecap="square"></path>
                        <rect id="Rectangle-path" stroke-linecap="square" x="27" y="21.6140351" width="27" height="13.5087719"></rect>
                        <path d="M16.2,45.9298246 L27,45.9298246" id="Shape" stroke-linecap="square"></path>
                        <path d="M21.6,45.9298246 L21.6,67.5438596" id="Shape" stroke-linecap="square"></path>
                        <path d="M54,45.9298246 L64.8,45.9298246" id="Shape" stroke-linecap="square"></path>
                        <path d="M59.4,45.9298246 L59.4,67.5438596" id="Shape" stroke-linecap="square"></path>
                    </g>
                    <g id="award-55" opacity="0.98" transform="translate(1801.023943, 950.971364) scale(-1, -1) rotate(-46.000000) translate(-1801.023943, -950.971364) translate(1757.023943, 903.971364)" stroke="#5CABC9" stroke-width="2">
                        <path d="M64.5558571,15.6666667 L23.4504286,15.6666667" id="Shape"></path>
                        <polyline id="Shape" points="22.8847143 47.0376 0 15.6666667 12.5714286 0 75.4285714 0 88 15.6666667 65.1152857 47.0376"></polyline>
                        <path d="M12.5714286,0 L38.9887143,38.0418" id="Shape"></path>
                        <path d="M75.4285714,0 L49.027,38.0418" id="Shape"></path>
                        <ellipse id="Oval" stroke-linecap="square" cx="44" cy="65.8" rx="28.2857143" ry="28.2"></ellipse>
                        <ellipse id="Oval" stroke-linecap="square" cx="44" cy="65.8" rx="12.5714286" ry="12.5333333"></ellipse>
                    </g>
                    <g id="award-48" opacity="0.97" transform="translate(2047.746044, 1093.633899) scale(-1, -1) rotate(-139.000000) translate(-2047.746044, -1093.633899) translate(2006.746044, 1043.633899)" stroke="#5CABC9" stroke-width="2">
                        <polyline id="Shape" points="14.8146667 56.6362069 0 87.9310345 15.375 86.2068966 23.9166667 100 38.247875 68.8551724"></polyline>
                        <polyline id="Shape" points="67.1853333 56.6362069 82 87.9310345 66.625 86.2068966 58.0833333 100 43.752125 68.8551724"></polyline>
                        <ellipse id="Oval" stroke-linecap="square" cx="41" cy="34.4827586" rx="34.1666667" ry="34.4827586"></ellipse>
                        <polygon id="Shape" stroke-linecap="square" points="23.9166667 30.4396552 35.7332083 28.8 41.0939583 18.0448276 46.2924167 28.8810345 58.0833333 30.7017241 49.4784583 39.0396552 51.4054583 50.9206897 40.8889583 45.237931 30.28875 50.7586207 32.395125 38.9086207"></polygon>
                    </g>
                    <g id="Group-6" transform="translate(1737.000000, 1092.000000)">
                        <g id="book" opacity="0.76" transform="translate(502.746328, 23.026292) rotate(-186.000000) translate(-502.746328, -23.026292) translate(472.746328, 3.026292)" stroke="#5CABC9" stroke-width="2">
                            <path d="M30,4.44444444 L30,38.5185185" id="Shape"></path>
                            <path d="M45,0 C36.7,0 30,2.2962963 30,5.62962963 C30,2.2962963 23.3,0 15,0 C6.7,0 0,2.2962963 0,5.62962963 L0,40 C0,36.6666667 6.7,34.0740741 15,34.0740741 C23.3,34.0740741 30,36.6666667 30,40 C30,36.6666667 36.7,34.0740741 45,34.0740741 C53.3,34.0740741 60,36.6666667 60,40 L60,5.62962963 C60,2.2962963 53.3,0 45,0 Z" id="Shape" stroke-linecap="square"></path>
                        </g>
                        <g id="book-open-2" opacity="0.74" transform="translate(529.483188, 115.947021) scale(-1, -1) rotate(-228.000000) translate(-529.483188, -115.947021) translate(499.483188, 87.947021)" stroke-linecap="square" stroke-width="2" stroke="#5CABC9">
                            <polygon id="Shape" points="0 0 30 10 60 0 60 46 30 56 0 46"></polygon>
                        </g>
                        <g id="planet" opacity="0.97" transform="translate(358.603251, 111.758357) scale(1, -1) rotate(-65.000000) translate(-358.603251, -111.758357) translate(322.603251, 75.758357)">
                            <circle id="Oval" stroke="#5CABC9" stroke-width="2" stroke-linecap="square" cx="34.8" cy="37.2" r="33.6"></circle>
                            <circle id="Oval" stroke="#5CABC9" stroke-width="2" stroke-linecap="square" cx="15.6" cy="50.4" r="2.4"></circle>
                            <circle id="Oval" stroke="#5CABC9" stroke-width="2" stroke-linecap="square" cx="49.2" cy="40.8" r="2.4"></circle>
                            <circle id="Oval" fill="#5CABC9" fill-rule="nonzero" cx="15.6" cy="50.4" r="2.4"></circle>
                            <circle id="Oval" fill="#5CABC9" fill-rule="nonzero" cx="49.2" cy="40.8" r="2.4"></circle>
                            <circle id="Oval" stroke="#5CABC9" stroke-width="2" stroke-linecap="square" cx="36.6" cy="22.2" r="6.6"></circle>
                            <path d="M69.6,57.6 C72.3132,63.6432 72.8388,68.3496 70.5936,70.5936 C65.1132,76.074 45.1968,65.0496 26.04,45.9552 L26.0436,45.9588 C6.9504,26.802 -4.074,6.8856 1.4064,1.4064 C3.6492,-0.8376 8.3604,-0.3108 14.4,2.4" id="Shape" stroke="#5CABC9" stroke-width="2" stroke-linecap="square"></path>
                        </g>
                        <g id="backpack-58" opacity="0.76" transform="translate(189.853997, 58.616920) scale(1, -1) rotate(-72.000000) translate(-189.853997, -58.616920) translate(158.353997, 28.616920)" stroke="#5CABC9" stroke-width="2">
                            <polyline id="Shape" stroke-linecap="square" points="21 8.42105263 21 0 42 0 42 8.42105263"></polyline>
                            <polyline id="Shape" points="57.75 44.2105263 57.75 60 5.25 60 5.25 44.2105263"></polyline>
                            <path d="M57.75,44.2105263 L5.25,44.2105263 C2.35095,44.2105263 0,41.8536842 0,38.9473684 L0,8.42105263 L63,8.42105263 L63,38.9473684 C63,41.8536842 60.64905,44.2105263 57.75,44.2105263 Z" id="Shape" stroke-linecap="square"></path>
                            <rect id="Rectangle-path" stroke-linecap="square" x="21" y="16.8421053" width="21" height="10.5263158"></rect>
                            <path d="M12.6,35.7894737 L21,35.7894737" id="Shape" stroke-linecap="square"></path>
                            <path d="M16.8,35.7894737 L16.8,52.6315789" id="Shape" stroke-linecap="square"></path>
                            <path d="M42,35.7894737 L50.4,35.7894737" id="Shape" stroke-linecap="square"></path>
                            <path d="M46.2,35.7894737 L46.2,52.6315789" id="Shape" stroke-linecap="square"></path>
                        </g>
                    </g>
                    <g id="award-48" opacity="0.85" transform="translate(2116.861481, 847.120037) scale(-1, 1) rotate(-325.000000) translate(-2116.861481, -847.120037) translate(2078.361481, 800.120037)" stroke="#5CABC9" stroke-width="2">
                        <polyline id="Shape" points="13.9113333 53.2380345 0 82.6551724 14.4375 81.0344828 22.4583333 94 35.9156875 64.7238621"></polyline>
                        <polyline id="Shape" points="63.0886667 53.2380345 77 82.6551724 62.5625 81.0344828 54.5416667 94 41.0843125 64.7238621"></polyline>
                        <ellipse id="Oval" stroke-linecap="square" cx="38.5" cy="32.4137931" rx="32.0833333" ry="32.4137931"></ellipse>
                        <polygon id="Shape" stroke-linecap="square" points="22.4583333 28.6132759 33.5543542 27.072 38.5882292 16.9621379 43.4697083 27.1481724 54.5416667 28.8596207 46.4614792 36.6972759 48.2709792 47.8654483 38.3957292 42.5236552 28.441875 47.7131034 30.4198125 36.5741034"></polygon>
                    </g>
                    <g id="backpack-58" opacity="0.76" transform="translate(2205.265731, 780.228790) scale(1, -1) rotate(-72.000000) translate(-2205.265731, -780.228790) translate(2173.765731, 750.228790)" stroke="#5CABC9" stroke-width="2">
                        <polyline id="Shape" stroke-linecap="square" points="21 8.42105263 21 0 42 0 42 8.42105263"></polyline>
                        <polyline id="Shape" points="57.75 44.2105263 57.75 60 5.25 60 5.25 44.2105263"></polyline>
                        <path d="M57.75,44.2105263 L5.25,44.2105263 C2.35095,44.2105263 0,41.8536842 0,38.9473684 L0,8.42105263 L63,8.42105263 L63,38.9473684 C63,41.8536842 60.64905,44.2105263 57.75,44.2105263 Z" id="Shape" stroke-linecap="square"></path>
                        <rect id="Rectangle-path" stroke-linecap="square" x="21" y="16.8421053" width="21" height="10.5263158"></rect>
                        <path d="M12.6,35.7894737 L21,35.7894737" id="Shape" stroke-linecap="square"></path>
                        <path d="M16.8,35.7894737 L16.8,52.6315789" id="Shape" stroke-linecap="square"></path>
                        <path d="M42,35.7894737 L50.4,35.7894737" id="Shape" stroke-linecap="square"></path>
                        <path d="M46.2,35.7894737 L46.2,52.6315789" id="Shape" stroke-linecap="square"></path>
                    </g>
                    <g id="award-48" opacity="0.74" transform="translate(1511.796279, 850.996833) scale(1, -1) rotate(-282.000000) translate(-1511.796279, -850.996833) translate(1470.796279, 801.496833)" stroke="#5CABC9" stroke-width="2">
                        <polyline id="Shape" points="14.8146667 56.0698448 0 87.0517241 15.375 85.3448276 23.9166667 99 38.247875 68.1666207"></polyline>
                        <polyline id="Shape" points="67.1853333 56.0698448 82 87.0517241 66.625 85.3448276 58.0833333 99 43.752125 68.1666207"></polyline>
                        <ellipse id="Oval" stroke-linecap="square" cx="41" cy="34.137931" rx="34.1666667" ry="34.137931"></ellipse>
                        <polygon id="Shape" stroke-linecap="square" points="23.9166667 30.1352586 35.7332083 28.512 41.0939583 17.8643793 46.2924167 28.5922241 58.0833333 30.3947069 49.4784583 38.6492586 51.4054583 50.4114828 40.8889583 44.7855517 30.28875 50.2510345 32.395125 38.5195345"></polygon>
                    </g>
                    <g id="award-48" opacity="0.87" transform="translate(1065.186665, 594.926807) scale(-1, 1) rotate(-138.000000) translate(-1065.186665, -594.926807) translate(1016.686665, 536.426807)" stroke="#5CABC9" stroke-width="2">
                        <polyline id="Shape" points="17.5246667 66.2643621 0 102.87931 18.1875 100.862069 28.2916667 117 45.2444375 80.5605517"></polyline>
                        <polyline id="Shape" points="79.4753333 66.2643621 97 102.87931 78.8125 100.862069 68.7083333 117 51.7555625 80.5605517"></polyline>
                        <ellipse id="Oval" stroke-linecap="square" cx="48.5" cy="40.3448276" rx="40.4166667" ry="40.3448276"></ellipse>
                        <polygon id="Shape" stroke-linecap="square" points="28.2916667 35.6143966 42.2697708 33.696 48.6111458 21.1124483 54.7605417 33.7908103 68.7083333 35.9210172 58.5293958 45.6763966 60.8088958 59.5772069 48.3686458 52.9283793 35.829375 59.3875862 38.3210625 45.5230862"></polygon>
                    </g>
                    <g id="laptop" opacity="0.87" transform="translate(2141.829327, 680.798323) scale(1, -1) rotate(-222.000000) translate(-2141.829327, -680.798323) translate(2101.329327, 654.298323)" stroke="#5CABC9" stroke-width="2" stroke-linecap="square">
                        <path d="M72.9,36.6923077 L72.9,4.07692308 C72.9,1.82544231 70.48215,0 67.5,0 L13.5,0 C10.51785,0 8.1,1.82544231 8.1,4.07692308 L8.1,36.6923077" id="Shape"></path>
                        <rect id="Rectangle-path" x="17.55" y="7.13461538" width="45.9" height="22.4230769"></rect>
                        <path d="M72.9,36.6923077 L8.1,36.6923077 L1.36755,50.2460385 C0.70605,51.5781731 2.0115,53 3.8961,53 L77.1039,53 C78.9885,53 80.29395,51.5781731 79.63245,50.2460385 L72.9,36.6923077 Z" id="Shape"></path>
                    </g>
                    <g id="laptop" opacity="0.91" transform="translate(1920.969322, 1050.374702) scale(-1, 1) rotate(-315.000000) translate(-1920.969322, -1050.374702) translate(1873.969322, 1019.874702)" stroke="#5CABC9" stroke-width="2" stroke-linecap="square">
                        <path d="M84.6,42.2307692 L84.6,4.69230769 C84.6,2.10098077 81.7941,0 78.3333333,0 L15.6666667,0 C12.2059,0 9.4,2.10098077 9.4,4.69230769 L9.4,42.2307692" id="Shape"></path>
                        <rect id="Rectangle-path" x="20.3666667" y="8.21153846" width="53.2666667" height="25.8076923"></rect>
                        <path d="M84.6,42.2307692 L9.4,42.2307692 L1.58703333,57.8303462 C0.819366667,59.3635577 2.33433333,61 4.5214,61 L89.4786,61 C91.6656667,61 93.1806333,59.3635577 92.4129667,57.8303462 L84.6,42.2307692 Z" id="Shape"></path>
                    </g>
                    <g id="laptop" opacity="0.82" transform="translate(1945.424749, 925.231007) scale(1, -1) rotate(-221.000000) translate(-1945.424749, -925.231007) translate(1909.424749, 901.731007)" stroke="#5CABC9" stroke-width="2" stroke-linecap="square">
                        <path d="M64.8,32.5384615 L64.8,3.61538462 C64.8,1.61878846 62.6508,0 60,0 L12,0 C9.3492,0 7.2,1.61878846 7.2,3.61538462 L7.2,32.5384615" id="Shape"></path>
                        <rect id="Rectangle-path" x="15.6" y="6.32692308" width="40.8" height="19.8846154"></rect>
                        <path d="M64.8,32.5384615 L7.2,32.5384615 L1.2156,44.5578077 C0.6276,45.7391346 1.788,47 3.4632,47 L68.5368,47 C70.212,47 71.3724,45.7391346 70.7844,44.5578077 L64.8,32.5384615 Z" id="Shape"></path>
                    </g>
                    <g id="laptop" opacity="0.89" transform="translate(1639.437016, 1157.888780) scale(1, -1) rotate(-208.000000) translate(-1639.437016, -1157.888780) translate(1607.937016, 1137.388780)" stroke="#5CABC9" stroke-width="2" stroke-linecap="square">
                        <path d="M56.7,28.3846154 L56.7,3.15384615 C56.7,1.41213462 54.81945,0 52.5,0 L10.5,0 C8.18055,0 6.3,1.41213462 6.3,3.15384615 L6.3,28.3846154" id="Shape"></path>
                        <rect id="Rectangle-path" x="13.65" y="5.51923077" width="35.7" height="17.3461538"></rect>
                        <path d="M56.7,28.3846154 L6.3,28.3846154 L1.06365,38.8695769 C0.54915,39.9000962 1.5645,41 3.0303,41 L59.9697,41 C61.4355,41 62.45085,39.9000962 61.93635,38.8695769 L56.7,28.3846154 Z" id="Shape"></path>
                    </g>
                    <g id="book" opacity="0.76" transform="translate(1573.926226, 1054.026292) rotate(-186.000000) translate(-1573.926226, -1054.026292) translate(1543.926226, 1034.026292)" stroke="#5CABC9" stroke-width="2">
                        <path d="M30,4.44444444 L30,38.5185185" id="Shape"></path>
                        <path d="M45,0 C36.7,0 30,2.2962963 30,5.62962963 C30,2.2962963 23.3,0 15,0 C6.7,0 0,2.2962963 0,5.62962963 L0,40 C0,36.6666667 6.7,34.0740741 15,34.0740741 C23.3,34.0740741 30,36.6666667 30,40 C30,36.6666667 36.7,34.0740741 45,34.0740741 C53.3,34.0740741 60,36.6666667 60,40 L60,5.62962963 C60,2.2962963 53.3,0 45,0 Z" id="Shape" stroke-linecap="square"></path>
                    </g>
                    <g id="laptop" opacity="0.91" transform="translate(1493.512874, 527.137406) rotate(-139.000000) translate(-1493.512874, -527.137406) translate(1462.012874, 506.637406)" stroke="#5CABC9" stroke-width="2" stroke-linecap="square">
                        <path d="M56.7,28.3846154 L56.7,3.15384615 C56.7,1.41213462 54.81945,0 52.5,0 L10.5,0 C8.18055,0 6.3,1.41213462 6.3,3.15384615 L6.3,28.3846154" id="Shape"></path>
                        <rect id="Rectangle-path" x="13.65" y="5.51923077" width="35.7" height="17.3461538"></rect>
                        <path d="M56.7,28.3846154 L6.3,28.3846154 L1.06365,38.8695769 C0.54915,39.9000962 1.5645,41 3.0303,41 L59.9697,41 C61.4355,41 62.45085,39.9000962 61.93635,38.8695769 L56.7,28.3846154 Z" id="Shape"></path>
                    </g>
                    <g id="laptop" opacity="0.98" transform="translate(990.489249, 1049.681732) scale(1, -1) rotate(-125.000000) translate(-990.489249, -1049.681732) translate(954.489249, 1026.681732)" stroke="#5CABC9" stroke-width="2" stroke-linecap="square">
                        <path d="M64.8,31.8461538 L64.8,3.53846154 C64.8,1.58434615 62.6508,0 60,0 L12,0 C9.3492,0 7.2,1.58434615 7.2,3.53846154 L7.2,31.8461538" id="Shape"></path>
                        <rect id="Rectangle-path" x="15.6" y="6.19230769" width="40.8" height="19.4615385"></rect>
                        <path d="M64.8,31.8461538 L7.2,31.8461538 L1.2156,43.6097692 C0.6276,44.7659615 1.788,46 3.4632,46 L68.5368,46 C70.212,46 71.3724,44.7659615 70.7844,43.6097692 L64.8,31.8461538 Z" id="Shape"></path>
                    </g>
                    <g id="laptop" opacity="0.81" transform="translate(1189.346783, 1105.142655) scale(-1, 1) rotate(-339.000000) translate(-1189.346783, -1105.142655) translate(1141.346783, 1074.142655)" stroke="#5CABC9" stroke-width="2" stroke-linecap="square">
                        <path d="M86.4,42.9230769 L86.4,4.76923077 C86.4,2.13542308 83.5344,0 80,0 L16,0 C12.4656,0 9.6,2.13542308 9.6,4.76923077 L9.6,42.9230769" id="Shape"></path>
                        <rect id="Rectangle-path" x="20.8" y="8.34615385" width="54.4" height="26.2307692"></rect>
                        <path d="M86.4,42.9230769 L9.6,42.9230769 L1.6208,58.7783846 C0.8368,60.3367308 2.384,62 4.6176,62 L91.3824,62 C93.616,62 95.1632,60.3367308 94.3792,58.7783846 L86.4,42.9230769 Z" id="Shape"></path>
                    </g>
                    <g id="laptop" opacity="0.85" transform="translate(1191.352124, 526.788391) scale(1, -1) rotate(-34.000000) translate(-1191.352124, -526.788391) translate(1142.852124, 495.288391)" stroke="#5CABC9" stroke-width="2" stroke-linecap="square">
                        <path d="M87.3,43.6153846 L87.3,4.84615385 C87.3,2.16986538 84.40455,0 80.8333333,0 L16.1666667,0 C12.59545,0 9.7,2.16986538 9.7,4.84615385 L9.7,43.6153846" id="Shape"></path>
                        <rect id="Rectangle-path" x="21.0166667" y="8.48076923" width="54.9666667" height="26.6538462"></rect>
                        <path d="M87.3,43.6153846 L9.7,43.6153846 L1.63768333,59.7264231 C0.845516667,61.3099038 2.40883333,63 4.6657,63 L92.3343,63 C94.5911667,63 96.1544833,61.3099038 95.3623167,59.7264231 L87.3,43.6153846 Z" id="Shape"></path>
                    </g>
                    <g id="book" opacity="0.74" transform="translate(1288.361975, 613.994237) rotate(-167.000000) translate(-1288.361975, -613.994237) translate(1249.861975, 587.994237)" stroke="#5CABC9" stroke-width="2">
                        <path d="M38.5,5.77777778 L38.5,50.0740741" id="Shape"></path>
                        <path d="M57.75,0 C47.0983333,0 38.5,2.98518519 38.5,7.31851852 C38.5,2.98518519 29.9016667,0 19.25,0 C8.59833333,0 0,2.98518519 0,7.31851852 L0,52 C0,47.6666667 8.59833333,44.2962963 19.25,44.2962963 C29.9016667,44.2962963 38.5,47.6666667 38.5,52 C38.5,47.6666667 47.0983333,44.2962963 57.75,44.2962963 C68.4016667,44.2962963 77,47.6666667 77,52 L77,7.31851852 C77,2.98518519 68.4016667,0 57.75,0 Z" id="Shape" stroke-linecap="square"></path>
                    </g>
                    <g id="tv-2" opacity="0.75" transform="translate(2243.734263, 417.785674) scale(-1, -1) rotate(-103.000000) translate(-2243.734263, -417.785674) translate(2204.234263, 380.785674)" stroke="#5CABC9" stroke-width="2" stroke-linecap="square">
                        <path d="M15.8,74 C15.8,74 28.14375,71.3571429 39.5,71.3571429 C50.85625,71.3571429 63.2,74 63.2,74" id="Shape"></path>
                        <path d="M39.5,60.7857143 L39.5,71.3571429" id="Shape"></path>
                        <rect id="Rectangle-path" x="0" y="0" width="79" height="60.7857143"></rect>
                        <path d="M0,48.8928571 L79,48.8928571" id="Shape"></path>
                    </g>
                    <g id="tv-2" opacity="0.7" transform="translate(1908.870865, 1237.416072) scale(1, -1) rotate(-76.000000) translate(-1908.870865, -1237.416072) translate(1871.370865, 1202.416072)" stroke="#5CABC9" stroke-width="2" stroke-linecap="square">
                        <path d="M15,70 C15,70 26.71875,67.5 37.5,67.5 C48.28125,67.5 60,70 60,70" id="Shape"></path>
                        <rect id="Rectangle-path" x="0" y="0" width="75" height="57.5"></rect>
                        <path d="M0,46.25 L75,46.25" id="Shape"></path>
                    </g>
                    <g id="tv-2" opacity="0.9" transform="translate(1086.940749, 1153.143503) scale(-1, 1) rotate(-258.000000) translate(-1086.940749, -1153.143503) translate(1048.440749, 1117.143503)" stroke="#5CABC9" stroke-width="2" stroke-linecap="square">
                        <path d="M15.4,72 C15.4,72 27.43125,69.4285714 38.5,69.4285714 C49.56875,69.4285714 61.6,72 61.6,72" id="Shape"></path>
                        <path d="M38.5,59.1428571 L38.5,69.4285714" id="Shape"></path>
                        <rect id="Rectangle-path" x="0" y="0" width="77" height="59.1428571"></rect>
                        <path d="M0,47.5714286 L77,47.5714286" id="Shape"></path>
                    </g>
                    <g id="bulb" opacity="0.94" transform="translate(2150.362327, 502.477892) rotate(-99.000000) translate(-2150.362327, -502.477892) translate(2108.362327, 444.977892)" stroke="#5CABC9" stroke-width="2">
                        <path d="M22.9090909,95.8333333 L61.0909091,95.8333333" id="Shape"></path>
                        <path d="M19.0909091,26.8333333 L22.9090909,26.8333333 C33.4526945,26.8333333 42,35.4145567 42,46 L42,53.6666667 L38.1818182,53.6666667 C27.6382145,53.6666667 19.0909091,45.0854433 19.0909091,34.5 L19.0909091,26.8333333 Z" id="Shape" stroke-linecap="square"></path>
                        <path d="M42,95.8333333 L42,19.1666667" id="Shape" stroke-linecap="square"></path>
                        <path d="M64.9090909,42.1666667 L61.0909091,42.1666667 C50.5473055,42.1666667 42,50.74789 42,61.3333333 L42,69 L45.8181818,69 C56.3617855,69 64.9090909,60.4187767 64.9090909,49.8333333 L64.9090909,42.1666667 Z" id="Shape" stroke-linecap="square"></path>
                        <path d="M84,42.1666667 C84,17.2789992 62.5239491,-2.57274167 37.1624591,0.2719175 C18.6609818,2.34713083 3.35644909,16.9859408 0.516924545,35.4577008 C-2.42716091,54.6097242 7.49449909,71.7724008 22.9090909,79.693275 L22.9090909,95.8333525 C22.9090909,106.418796 31.4563773,115 41.9999809,115 L42.0000191,115 C52.5436227,115 61.0909091,106.418796 61.0909091,95.8333525 L61.0909091,79.693275 C74.6798945,72.7104942 84,58.5453692 84,42.1666667 Z" id="Shape" stroke-linecap="square"></path>
                    </g>
                    <g id="book-open-2" opacity="0.74" transform="translate(2144.881973, 358.030002) scale(-1, -1) rotate(-228.000000) translate(-2144.881973, -358.030002) translate(2114.881973, 330.030002)" stroke="#5CABC9" stroke-width="2" stroke-linecap="square">
                        <path d="M24,19.3 L8,14" id="Shape"></path>
                        <path d="M24,30.7 L8,25.3" id="Shape"></path>
                        <path d="M8,38 L24,43.3" id="Shape"></path>
                        <path d="M36,19.3 L52,14" id="Shape"></path>
                        <path d="M36,30.7 L52,25.3" id="Shape"></path>
                        <path d="M52,38 L36,43.3" id="Shape"></path>
                        <polygon id="Shape" points="0 0 30 10 60 0 60 46 30 56 0 46"></polygon>
                    </g>
                    <g id="planet" opacity="0.97" transform="translate(2188.841338, 594.841338) scale(1, -1) rotate(-65.000000) translate(-2188.841338, -594.841338) translate(2152.841338, 558.841338)">
                        <circle id="Oval" stroke="#5CABC9" stroke-width="2" stroke-linecap="square" cx="34.8" cy="37.2" r="33.6"></circle>
                        <circle id="Oval" stroke="#5CABC9" stroke-width="2" stroke-linecap="square" cx="15.6" cy="50.4" r="2.4"></circle>
                        <circle id="Oval" stroke="#5CABC9" stroke-width="2" stroke-linecap="square" cx="49.2" cy="40.8" r="2.4"></circle>
                        <circle id="Oval" fill="#5CABC9" fill-rule="nonzero" cx="15.6" cy="50.4" r="2.4"></circle>
                        <circle id="Oval" fill="#5CABC9" fill-rule="nonzero" cx="49.2" cy="40.8" r="2.4"></circle>
                        <circle id="Oval" stroke="#5CABC9" stroke-width="2" stroke-linecap="square" cx="36.6" cy="22.2" r="6.6"></circle>
                        <path d="M69.6,57.6 C72.3132,63.6432 72.8388,68.3496 70.5936,70.5936 C65.1132,76.074 45.1968,65.0496 26.04,45.9552 L26.0436,45.9588 C6.9504,26.802 -4.074,6.8856 1.4064,1.4064 C3.6492,-0.8376 8.3604,-0.3108 14.4,2.4" id="Shape" stroke="#5CABC9" stroke-width="2" stroke-linecap="square"></path>
                    </g>
                    <g id="bulb" opacity="0.81" transform="translate(1592.871532, 381.050749) rotate(-93.000000) translate(-1592.871532, -381.050749) translate(1559.871532, 336.050749)" stroke="#5CABC9" stroke-width="2">
                        <path d="M18,75 L48,75" id="Shape"></path>
                        <path d="M15,21 L18,21 C26.28426,21 33,27.71574 33,36 L33,42 L30,42 C21.71574,42 15,35.28426 15,27 L15,21 Z" id="Shape" stroke-linecap="square"></path>
                        <path d="M33,75 L33,15" id="Shape" stroke-linecap="square"></path>
                        <path d="M51,33 L48,33 C39.71574,33 33,39.71574 33,48 L33,54 L36,54 C44.28426,54 51,47.28426 51,39 L51,33 Z" id="Shape" stroke-linecap="square"></path>
                        <path d="M66,33 C66,13.522695 49.12596,-2.01345 29.199075,0.212805 C14.6622,1.836885 2.63721,13.293345 0.406155,27.749505 C-1.907055,42.738045 5.888535,56.169705 18,62.36865 L18,75.000015 C18,83.284275 24.715725,90 32.999985,90 L33.000015,90 C41.284275,90 48,83.284275 48,75.000015 L48,62.36865 C58.67706,56.903865 66,45.818115 66,33 Z" id="Shape" stroke-linecap="square"></path>
                    </g>
                    <g id="Group" transform="translate(1343.722577, 492.641025) rotate(43.000000) translate(-1343.722577, -492.641025) translate(1293.722577, 464.554605)" stroke="#5CABC9" stroke-width="2">
                        <path d="M50.2135524,1.04357194 L4.01968534,14.827809 L50.2135524,28.6120461 L96.4074194,14.827809 L50.2135524,1.04357194 Z" id="Rectangle-3"></path>
                        <path d="M49,53.5681236 L49,33.4102448 L25.0740741,25.4349361 L25.0740741,40.7331065 L49,53.5681236 Z" id="Rectangle-5"></path>
                        <path d="M50.7856472,53.7096766 L74.9259259,40.7596703 L74.9259259,25.4615 L49.9964141,33.7713373 L47.7983407,33.0220102 L50.7856472,53.7096766 Z" id="Rectangle-5"></path>
                        <polyline id="Path-3" points="13.5297399 18.5318996 13.5297399 39.2878694 15.7104625 39.2878694 15.7104625 18.7370009"></polyline>
                        <circle id="Oval-3" cx="14.5061728" cy="42.2839506" r="2.77777778"></circle>
                        <path d="M14.3967842,56.1295974 C11.5244929,55.6811763 9.92388115,54.7915069 9.59494902,53.4605891 C9.26601689,52.1296714 10.0810901,48.8988172 12.0401687,44.3244835 L12.2961474,44.1382529 M16.679328,44.3244835 C18.6384066,48.8988172 19.5930554,52.1296714 19.2641233,53.4605891 C18.9351911,54.7915069 16.9734947,55.6811763 14.1012033,56.1295974" id="Combined-Shape"></path>
                    </g>
                    <g id="Group" transform="translate(1210.000000, 1163.000000)" stroke="#5CABC9" stroke-width="2">
                        <path d="M50.2135524,1.04357194 L4.01968534,14.827809 L50.2135524,28.6120461 L96.4074194,14.827809 L50.2135524,1.04357194 Z" id="Rectangle-3"></path>
                        <path d="M49,53.5681236 L49,33.4102448 L25.0740741,25.4349361 L25.0740741,40.7331065 L49,53.5681236 Z" id="Rectangle-5"></path>
                        <path d="M50.7856472,53.7096766 L74.9259259,40.7596703 L74.9259259,25.4615 L49.9964141,33.7713373 L47.7983407,33.0220102 L50.7856472,53.7096766 Z" id="Rectangle-5"></path>
                        <polyline id="Path-3" points="13.5297399 18.5318996 13.5297399 39.2878694 15.7104625 39.2878694 15.7104625 18.7370009"></polyline>
                        <circle id="Oval-3" cx="14.5061728" cy="42.2839506" r="2.77777778"></circle>
                        <path d="M14.3967842,56.1295974 C11.5244929,55.6811763 9.92388115,54.7915069 9.59494902,53.4605891 C9.26601689,52.1296714 10.0810901,48.8988172 12.0401687,44.3244835 L12.2961474,44.1382529 M16.679328,44.3244835 C18.6384066,48.8988172 19.5930554,52.1296714 19.2641233,53.4605891 C18.9351911,54.7915069 16.9734947,55.6811763 14.1012033,56.1295974" id="Combined-Shape"></path>
                    </g>
                    <g id="Group" transform="translate(1452.500000, 695.000000) rotate(-360.000000) translate(-1452.500000, -695.000000) translate(1389.000000, 659.000000)" stroke="#5CABC9" stroke-width="2">
                        <path d="M63.5814284,1.04357194 L4.15877411,18.7752755 L63.5814284,36.506979 L123.004083,18.7752755 L63.5814284,1.04357194 Z" id="Rectangle-3"></path>
                        <path d="M62.3110241,68.2739764 L62.3110241,42.1128554 L31.4830857,31.8368758 L31.4830857,51.7363878 L62.3110241,68.2739764 Z" id="Rectangle-5"></path>
                        <path d="M64.0966713,68.4226012 L95.1389625,51.7700236 L95.1389625,31.8705115 L63.3074382,42.4810198 L60.1976122,41.4208746 L64.0966713,68.4226012 Z" id="Rectangle-5"></path>
                        <polyline id="Path-3" points="17.1316338 23.4654708 17.1316338 49.7471049 19.8929093 49.7471049 19.8929093 23.7251743"></polyline>
                        <circle id="Oval-3" cx="18.3680132" cy="53.5408043" r="3.51727911"></circle>
                        <path d="M18.2295031,71.0724458 C14.5925489,70.5046459 12.5658216,69.3781283 12.149321,67.6928929 C11.7328204,66.0076576 12.7648828,61.9166838 15.2455082,56.1245688 L15.5696336,55.8887598 M21.1197068,56.1245688 C23.6003322,61.9166838 24.809128,66.0076576 24.3926274,67.6928929 C23.9761268,69.3781283 21.4921866,70.5046459 17.8552325,71.0724458" id="Combined-Shape"></path>
                    </g>
                    <g id="Group" transform="translate(2230.708406, 1115.511693) rotate(-15.000000) translate(-2230.708406, -1115.511693) translate(2167.208406, 1079.511693)" stroke="#5CABC9" stroke-width="2">
                        <path d="M63.5814284,1.04357194 L4.15877411,18.7752755 L63.5814284,36.506979 L123.004083,18.7752755 L63.5814284,1.04357194 Z" id="Rectangle-3"></path>
                        <path d="M62.3110241,68.2739764 L62.3110241,42.1128554 L31.4830857,31.8368758 L31.4830857,51.7363878 L62.3110241,68.2739764 Z" id="Rectangle-5"></path>
                        <path d="M64.0966713,68.4226012 L95.1389625,51.7700236 L95.1389625,31.8705115 L63.3074382,42.4810198 L60.1976122,41.4208746 L64.0966713,68.4226012 Z" id="Rectangle-5"></path>
                        <polyline id="Path-3" points="17.1316338 23.4654708 17.1316338 49.7471049 19.8929093 49.7471049 19.8929093 23.7251743"></polyline>
                        <circle id="Oval-3" cx="18.3680132" cy="53.5408043" r="3.51727911"></circle>
                        <path d="M18.2295031,71.0724458 C14.5925489,70.5046459 12.5658216,69.3781283 12.149321,67.6928929 C11.7328204,66.0076576 12.7648828,61.9166838 15.2455082,56.1245688 L15.5696336,55.8887598 M21.1197068,56.1245688 C23.6003322,61.9166838 24.809128,66.0076576 24.3926274,67.6928929 C23.9761268,69.3781283 21.4921866,70.5046459 17.8552325,71.0724458" id="Combined-Shape"></path>
                    </g>
                    <g id="rotate" transform="translate(910.000000, 260.000000)" stroke="#5CABC9" stroke-width="2">
                        <path d="M4.772,30.228 L30.228,4.772" id="Shape"></path>
                        <path d="M25.772,51.228 L51.228,25.772" id="Shape"></path>
                        <path d="M58.828,39.029 L39.029,58.828 C37.467,60.39 34.934,60.39 33.372,58.828 L1.172,26.627 C-0.39,25.065 -0.39,22.532 1.172,20.97 L20.971,1.172 C22.533,-0.39 25.066,-0.39 26.628,1.172 L58.829,33.373 C60.391,34.935 60.391,37.467 58.828,39.029 Z" id="Shape" stroke-linecap="square"></path>
                        <path d="M16,60 C7.163,60 0,52.837 0,44" id="Shape" stroke-linecap="square"></path>
                        <path d="M60,16 C60,7.163 52.837,0 44,0" id="Shape" stroke-linecap="square"></path>
                    </g>
                    <g id="rotate" transform="translate(863.940317, 1234.742346) rotate(-285.000000) translate(-863.940317, -1234.742346) translate(833.940317, 1204.742346)" stroke="#5CABC9" stroke-width="2">
                        <path d="M4.772,30.228 L30.228,4.772" id="Shape"></path>
                        <path d="M58.828,39.029 L39.029,58.828 C37.467,60.39 34.934,60.39 33.372,58.828 L1.172,26.627 C-0.39,25.065 -0.39,22.532 1.172,20.97 L20.971,1.172 C22.533,-0.39 25.066,-0.39 26.628,1.172 L58.829,33.373 C60.391,34.935 60.391,37.467 58.828,39.029 Z" id="Shape" stroke-linecap="square"></path>
                        <path d="M16,60 C7.163,60 0,52.837 0,44" id="Shape" stroke-linecap="square"></path>
                    </g>
                    <g id="rotate" transform="translate(1902.742346, 359.785721) rotate(-75.000000) translate(-1902.742346, -359.785721) translate(1872.742346, 329.785721)" stroke="#5CABC9" stroke-width="2">
                        <path d="M4.772,30.228 L30.228,4.772" id="Shape"></path>
                        <path d="M25.772,51.228 L51.228,25.772" id="Shape"></path>
                        <path d="M58.828,39.029 L39.029,58.828 C37.467,60.39 34.934,60.39 33.372,58.828 L1.172,26.627 C-0.39,25.065 -0.39,22.532 1.172,20.97 L20.971,1.172 C22.533,-0.39 25.066,-0.39 26.628,1.172 L58.829,33.373 C60.391,34.935 60.391,37.467 58.828,39.029 Z" id="Shape" stroke-linecap="square"></path>
                        <path d="M16,60 C7.163,60 0,52.837 0,44" id="Shape" stroke-linecap="square"></path>
                        <path d="M60,16 C60,7.163 52.837,0 44,0" id="Shape" stroke-linecap="square"></path>
                    </g>
                    <g id="ruler-pencil" opacity="0.99" transform="translate(990.516660, 434.248711) rotate(-150.000000) translate(-990.516660, -434.248711) translate(964.516660, 406.248711)" stroke="#5CABC9" stroke-width="2">
                        <path d="M42.3398197,9.16983557 L42.3398197,42.1812436" id="Shape" stroke-linecap="square"></path>
                        <path d="M33.1355111,9.16983557 L51.5441284,9.16983557" id="Shape" stroke-linecap="square"></path>
                        <path d="M33.1355111,42.1812436 L51.5441284,42.1812436" id="Shape"></path>
                        <polygon id="Shape" stroke-linecap="square" points="51.5441284 42.1812436 42.3398197 53.1850463 33.1355111 42.1812436 33.1355111 0 51.5441284 0"></polygon>
                        <path d="M0,25.6755396 L8.28387778,25.6755396" id="Shape"></path>
                        <path d="M0,33.0114081 L6.44301605,33.0114081" id="Shape"></path>
                        <path d="M0,47.683145 L6.44301605,47.683145" id="Shape"></path>
                        <path d="M0,11.0038027 L8.28387778,11.0038027" id="Shape"></path>
                        <path d="M0,18.3396711 L6.44301605,18.3396711" id="Shape"></path>
                        <path d="M0,40.3472765 L8.28387778,40.3472765" id="Shape"></path>
                        <ellipse id="Oval" stroke-linecap="square" cx="14.7268938" cy="7.33586846" rx="1.84086173" ry="1.83396711"></ellipse>
                        <rect id="Rectangle-path" stroke-linecap="square" x="0" y="0" width="22.0903407" height="55.0190134"></rect>
                    </g>
                    <g id="bulb-63" opacity="0.74" transform="translate(1291.699341, 288.105860) scale(-1, -1) rotate(-195.000000) translate(-1291.699341, -288.105860) translate(1256.699341, 252.605860)" stroke="#5CABC9" stroke-width="2" stroke-linecap="square">
                        <path d="M0,34.9180328 L7,34.9180328" id="Shape"></path>
                        <path d="M10.5,10.4754098 L15.1666667,15.1311475" id="Shape"></path>
                        <path d="M35,0 L35,6.98360656" id="Shape"></path>
                        <path d="M59.5,10.4754098 L54.8333333,15.1311475" id="Shape"></path>
                        <path d="M70,34.9180328 L63,34.9180328" id="Shape"></path>
                        <path d="M26.8333333,69.8360656 L43.1666667,69.8360656" id="Shape"></path>
                        <path d="M54.8333333,34.9180328 C54.8333333,23.9898525 45.9538333,15.1311475 35,15.1311475 C24.0461667,15.1311475 15.1666667,23.9898525 15.1666667,34.9180328 C15.1666667,42.9387049 19.9581667,49.8280328 26.8333333,52.9357377 L26.8333333,62.852459 L43.1666667,62.852459 L43.1666667,52.9357377 C50.0418333,49.8280328 54.8333333,42.9387049 54.8333333,34.9180328 Z" id="Shape"></path>
                    </g>
                    <g id="Group" transform="translate(2136.448385, 254.334409) rotate(-330.000000) translate(-2136.448385, -254.334409) translate(2081.948385, 223.834409)" stroke="#5CABC9" stroke-width="2">
                        <path d="M54.3553715,1.04357194 L4.06277974,16.0508674 L54.3553715,31.0581628 L104.647963,16.0508674 L54.3553715,1.04357194 Z" id="Rectangle-3"></path>
                        <path d="M53.1242045,58.1244931 L53.1242045,36.1066073 L27.0598022,27.4184731 L27.0598022,44.1422944 L53.1242045,58.1244931 Z" id="Rectangle-5"></path>
                        <path d="M54.9098517,58.2682373 L81.1886068,44.1710494 L81.1886068,27.4472281 L54.1206186,36.4698909 L51.6400535,35.6242619 L54.9098517,58.2682373 Z" id="Rectangle-5"></path>
                        <polyline id="Path-3" points="14.6457282 20.0604865 14.6457282 42.5284935 17.0063257 42.5284935 17.0063257 20.2825054"></polyline>
                        <circle id="Oval-3" cx="15.7027013" cy="45.7717038" r="3.00690025"></circle>
                        <path d="M15.5842899,60.7593962 C12.4750802,60.2739875 10.7424435,59.3109345 10.3863797,57.8702372 C10.0303159,56.4295399 10.9126197,52.9321916 13.033291,47.9805482 L13.3103839,47.7789566 M18.0551072,47.9805482 C20.1757786,52.9321916 21.2091707,56.4295399 20.8531069,57.8702372 C20.4970431,59.3109345 18.3735379,60.2739875 15.2643283,60.7593962" id="Combined-Shape"></path>
                    </g>
                    <g id="Group-4" transform="translate(775.000000, 0.000000)" stroke="#5CABC9" stroke-width="2">
                        <path d="M749.623702,182.677775 L735.120481,193.606736 L745.714246,207.665136 L744.162101,207.981672 C742.677033,208.284528 741.156697,208.43841 739.61715,208.43841 C727.118946,208.43841 716.98715,198.306614 716.98715,185.80841 C716.98715,173.310206 727.118946,163.17841 739.61715,163.17841 C752.115354,163.17841 762.24715,173.310206 762.24715,185.80841 C762.24715,188.862371 761.641356,191.833449 760.4804,194.588819 L759.805804,196.18988 L749.623702,182.677775 Z M739.82715,227.01841 C762.470825,227.01841 780.82715,208.662085 780.82715,186.01841 C780.82715,163.374735 762.470825,145.01841 739.82715,145.01841 C717.183475,145.01841 698.82715,163.374735 698.82715,186.01841 C698.82715,208.662085 717.183475,227.01841 739.82715,227.01841 Z" id="Combined-Shape-Copy-6" opacity="0.86" transform="translate(739.827150, 186.018410) scale(1, -1) rotate(-24.000000) translate(-739.827150, -186.018410) "></path>
                        <g id="bulb-61" opacity="0.78" transform="translate(857.264406, 196.651753) scale(-1, 1) rotate(-60.000000) translate(-857.264406, -196.651753) translate(821.764406, 148.151753)" stroke-linecap="square">
                            <path d="M71,35.5666667 C71,15.9241667 55.1056818,0 35.5,0 C15.8943182,0 0,15.9241667 0,35.5666667 C0,49.3810833 7.87777273,61.3298667 19.3636364,67.2193833 L19.3636364,85.6833333 L51.6363636,85.6833333 L51.6363636,67.2193833 C63.1222273,61.3298667 71,49.3810833 71,35.5666667 Z" id="Shape"></path>
                            <path d="M19.3636364,95.3833333 L51.6363636,95.3833333" id="Shape"></path>
                        </g>
                        <g id="bulb-61" opacity="0.74" transform="translate(882.511476, 296.869357) scale(-1, 1) rotate(-136.000000) translate(-882.511476, -296.869357) translate(844.011476, 243.869357)" stroke-linecap="square">
                            <path d="M77,38.8666667 C77,17.4016667 59.7625,0 38.5,0 C17.2375,0 0,17.4016667 0,38.8666667 C0,53.9628333 8.5435,67.0202667 21,73.4562333 L21,93.6333333 L56,93.6333333 L56,73.4562333 C68.4565,67.0202667 77,53.9628333 77,38.8666667 Z" id="Shape"></path>
                            <path d="M17.5,49.4666667 C17.5,45.5641 20.63425,42.4 24.5,42.4 C28.36575,42.4 31.5,45.5641 31.5,49.4666667 C31.5,50.7545667 31.5,56.5333333 31.5,56.5333333 C31.5,56.5333333 27.09,56.5333333 24.5,56.5333333 C20.63425,56.5333333 17.5,53.3692333 17.5,49.4666667 Z" id="Shape"></path>
                            <path d="M31.5,56.5333333 L31.5,83.0333333" id="Shape"></path>
                            <path d="M59.5,49.4666667 C59.5,45.5641 56.36575,42.4 52.5,42.4 C48.63425,42.4 45.5,45.5641 45.5,49.4666667 C45.5,50.7545667 45.5,56.5333333 45.5,56.5333333 C45.5,56.5333333 49.91,56.5333333 52.5,56.5333333 C56.36575,56.5333333 59.5,53.3692333 59.5,49.4666667 Z" id="Shape"></path>
                            <path d="M45.5,56.5333333 L45.5,83.0333333" id="Shape"></path>
                            <path d="M31.5,56.5333333 L45.5,56.5333333" id="Shape"></path>
                            <path d="M21,104.233333 L56,104.233333" id="Shape"></path>
                        </g>
                        <g id="bulb-63" opacity="0.74" transform="translate(1036.776905, 277.393250) scale(-1, -1) rotate(-159.000000) translate(-1036.776905, -277.393250) translate(1001.776905, 241.893250)" stroke-linecap="square">
                            <path d="M0,34.9180328 L7,34.9180328" id="Shape"></path>
                            <path d="M10.5,10.4754098 L15.1666667,15.1311475" id="Shape"></path>
                            <path d="M35,0 L35,6.98360656" id="Shape"></path>
                            <path d="M59.5,10.4754098 L54.8333333,15.1311475" id="Shape"></path>
                            <path d="M70,34.9180328 L63,34.9180328" id="Shape"></path>
                            <path d="M26.8333333,69.8360656 L43.1666667,69.8360656" id="Shape"></path>
                            <path d="M54.8333333,34.9180328 C54.8333333,23.9898525 45.9538333,15.1311475 35,15.1311475 C24.0461667,15.1311475 15.1666667,23.9898525 15.1666667,34.9180328 C15.1666667,42.9387049 19.9581667,49.8280328 26.8333333,52.9357377 L26.8333333,62.852459 L43.1666667,62.852459 L43.1666667,52.9357377 C50.0418333,49.8280328 54.8333333,42.9387049 54.8333333,34.9180328 Z" id="Shape"></path>
                        </g>
                        <g id="book-open" opacity="0.96" transform="translate(1480.937108, 299.727665) scale(-1, 1) rotate(-17.000000) translate(-1480.937108, -299.727665) translate(1441.437108, 264.227665)" stroke-linecap="square">
                            <polyline id="Shape" points="71.1 7.88888889 79 7.88888889 79 71 0 71 0 7.88888889 7.9 7.88888889"></polyline>
                            <path d="M39.5,9.2037037 C30.6125,2.5205 18.8717833,0 7.9,0 C7.9,6.3545 7.9,53.9074074 7.9,53.9074074 C18.8717833,53.9074074 30.6125,56.4279074 39.5,63.1111111 C48.3875,56.4279074 60.1282167,53.9074074 71.1,53.9074074 C71.1,53.9074074 71.1,6.3545 71.1,0 C60.1282167,0 48.3875,2.5205 39.5,9.2037037 Z" id="Shape"></path>
                        </g>
                        <g id="book-open" opacity="0.7" transform="translate(291.565177, 223.161565) scale(-1, 1) rotate(-356.000000) translate(-291.565177, -223.161565) translate(259.565177, 194.161565)">
                            <path d="M32,7.51851852 L32,36.5185185" id="Shape"></path>
                            <polyline id="Shape" stroke-linecap="square" points="57.6 6.44444444 64 6.44444444 64 58 0 58 0 6.44444444 6.4 6.44444444"></polyline>
                            <path d="M32,7.51851852 C24.8,2.059 15.2885333,0 6.4,0 C6.4,5.191 6.4,44.037037 6.4,44.037037 C15.2885333,44.037037 24.8,46.096037 32,51.5555556 C39.2,46.096037 48.7114667,44.037037 57.6,44.037037 C57.6,44.037037 57.6,5.191 57.6,0 C48.7114667,0 39.2,2.059 32,7.51851852 Z" id="Shape" stroke-linecap="square"></path>
                        </g>
                        <g id="book-bookmark-2" opacity="0.92" transform="translate(1125.386595, 170.257999) scale(-1, 1) rotate(-72.000000) translate(-1125.386595, -170.257999) translate(1083.386595, 119.757999)">
                            <path d="M84,80.8 L84,0 L10.08,0 C4.51248,0 0,4.52143333 0,10.1 L0,90.9" id="Shape"></path>
                            <path d="M84,101 L84,80.8 L10.08,80.8 C4.51248,80.8 0,85.3214333 0,90.9 L0,90.9 C0,96.4785667 4.51248,101 10.08,101 L84,101 Z" id="Shape" stroke-linecap="square"></path>
                        </g>
                        <g id="laptop" opacity="0.89" transform="translate(984.816544, 196.597047) scale(1, -1) rotate(-208.000000) translate(-984.816544, -196.597047) translate(953.316544, 176.097047)" stroke-linecap="square">
                            <path d="M56.7,28.3846154 L6.3,28.3846154 L1.06365,38.8695769 C0.54915,39.9000962 1.5645,41 3.0303,41 L59.9697,41 C61.4355,41 62.45085,39.9000962 61.93635,38.8695769 L56.7,28.3846154 Z" id="Shape"></path>
                        </g>
                        <g id="tv-2" opacity="0.7" transform="translate(1254.250393, 276.124339) scale(1, -1) rotate(-76.000000) translate(-1254.250393, -276.124339) translate(1216.750393, 241.124339)" stroke-linecap="square">
                            <path d="M15,70 C15,70 26.71875,67.5 37.5,67.5 C48.28125,67.5 60,70 60,70" id="Shape"></path>
                            <path d="M37.5,57.5 L37.5,67.5" id="Shape"></path>
                            <rect id="Rectangle-path" x="0" y="0" width="75" height="57.5"></rect>
                            <path d="M0,46.25 L75,46.25" id="Shape"></path>
                        </g>
                        <g id="tv-2" opacity="0.9" transform="translate(411.217914, 278.143503) scale(-1, 1) rotate(-258.000000) translate(-411.217914, -278.143503) translate(372.717914, 242.143503)" stroke-linecap="square">
                            <path d="M15.4,72 C15.4,72 27.43125,69.4285714 38.5,69.4285714 C49.56875,69.4285714 61.6,72 61.6,72" id="Shape"></path>
                            <path d="M38.5,59.1428571 L38.5,69.4285714" id="Shape"></path>
                            <rect id="Rectangle-path" x="0" y="0" width="77" height="59.1428571"></rect>
                            <path d="M0,47.5714286 L77,47.5714286" id="Shape"></path>
                        </g>
                        <g id="Group" transform="translate(551.379528, 225.708267)">
                            <path d="M50.2135524,1.04357194 L4.01968534,14.827809 L50.2135524,28.6120461 L96.4074194,14.827809 L50.2135524,1.04357194 Z" id="Rectangle-3"></path>
                            <path d="M49,53.5681236 L49,33.4102448 L25.0740741,25.4349361 L25.0740741,40.7331065 L49,53.5681236 Z" id="Rectangle-5"></path>
                            <path d="M50.7856472,53.7096766 L74.9259259,40.7596703 L74.9259259,25.4615 L49.9964141,33.7713373 L47.7983407,33.0220102 L50.7856472,53.7096766 Z" id="Rectangle-5"></path>
                            <polyline id="Path-3" points="13.5297399 18.5318996 13.5297399 39.2878694 15.7104625 39.2878694 15.7104625 18.7370009"></polyline>
                            <circle id="Oval-3" cx="14.5061728" cy="42.2839506" r="2.77777778"></circle>
                            <path d="M14.3967842,56.1295974 C11.5244929,55.6811763 9.92388115,54.7915069 9.59494902,53.4605891 C9.26601689,52.1296714 10.0810901,48.8988172 12.0401687,44.3244835 L12.2961474,44.1382529 M16.679328,44.3244835 C18.6384066,48.8988172 19.5930554,52.1296714 19.2641233,53.4605891 C18.9351911,54.7915069 16.9734947,55.6811763 14.1012033,56.1295974" id="Combined-Shape"></path>
                        </g>
                        <g id="rotate" transform="translate(36.742346, 233.742346) rotate(-285.000000) translate(-36.742346, -233.742346) translate(6.742346, 203.742346)">
                            <path d="M4.772,30.228 L30.228,4.772" id="Shape"></path>
                            <path d="M25.772,51.228 L51.228,25.772" id="Shape"></path>
                            <path d="M58.828,39.029 L39.029,58.828 C37.467,60.39 34.934,60.39 33.372,58.828 L1.172,26.627 C-0.39,25.065 -0.39,22.532 1.172,20.97 L20.971,1.172 C22.533,-0.39 25.066,-0.39 26.628,1.172 L58.829,33.373 C60.391,34.935 60.391,37.467 58.828,39.029 Z" id="Shape" stroke-linecap="square"></path>
                            <path d="M60,16 C60,7.163 52.837,0 44,0" id="Shape" stroke-linecap="square"></path>
                        </g>
                    </g>
                </g>
                <g id="Logo-dark" transform="translate(1103.000000, 651.000000)" fill="#5CABC9">
                    <path d="M88.1962927,72.5436344 C89.9421477,68.6574661 90.9133698,64.3478673 90.9133698,59.8114275 C90.9133698,42.6342991 76.988556,28.7094852 59.8114275,28.7094852 C42.6342991,28.7094852 28.7094852,42.6342991 28.7094852,59.8114275 C28.7094852,76.988556 42.6342991,90.9133698 59.8114275,90.9133698 C61.8437542,90.9133698 63.8305529,90.7184413 65.7541472,90.3462608 L50.9422143,70.6901619 L73.8127253,53.4559957 L88.1962927,72.5436344 Z M59.8114275,119.622855 C26.7784882,119.622855 0,92.8443668 0,59.8114275 C0,26.7784882 26.7784882,0 59.8114275,0 C92.8443668,0 119.622855,26.7784882 119.622855,59.8114275 C119.622855,92.8443668 92.8443668,119.622855 59.8114275,119.622855 Z" id="Combined-Shape"></path>
                </g>
            </g>
        </g>
    </g>
</svg>